<?xml version="1.0" encoding="UTF-8" standalone="no"?>
<svg
   class="svglite"
   width="576.00pt"
   height="432.00pt"
   viewBox="0 0 576.00 432.00"
   version="1.1"
   id="svg1343"
   sodipodi:docname="SI_express_boot.svg"
   xml:space="preserve"
   inkscape:version="1.2.2 (b0a8486, 2022-12-01)"
   xmlns:inkscape="http://www.inkscape.org/namespaces/inkscape"
   xmlns:sodipodi="http://sodipodi.sourceforge.net/DTD/sodipodi-0.dtd"
   xmlns="http://www.w3.org/2000/svg"
   xmlns:svg="http://www.w3.org/2000/svg"><sodipodi:namedview
     id="namedview1345"
     pagecolor="#ffffff"
     bordercolor="#000000"
     borderopacity="0.25"
     inkscape:showpageshadow="2"
     inkscape:pageopacity="0.0"
     inkscape:pagecheckerboard="0"
     inkscape:deskcolor="#d1d1d1"
     inkscape:document-units="pt"
     showgrid="false"
     inkscape:zoom="1.2552708"
     inkscape:cx="499.09548"
     inkscape:cy="381.59096"
     inkscape:window-width="1440"
     inkscape:window-height="900"
     inkscape:window-x="1920"
     inkscape:window-y="0"
     inkscape:window-maximized="0"
     inkscape:current-layer="g1870" /><defs
     id="defs800"><rect
       x="627.05451"
       y="107.62876"
       width="34.628383"
       height="24.333458"
       id="rect15206" /><marker
       style="overflow:visible"
       id="marker3477"
       refX="0"
       refY="0"
       orient="auto-start-reverse"
       inkscape:stockid="TriangleStart"
       markerWidth="4.9916334"
       markerHeight="5.6666179"
       viewBox="0 0 4.9916334 5.6666178"
       inkscape:isstock="true"
       inkscape:collect="always"
       preserveAspectRatio="xMidYMid"><path
         transform="scale(0.5)"
         style="fill:context-stroke;fill-rule:evenodd;stroke:context-stroke;stroke-width:1pt"
         d="M 5.77,0 -2.88,5 V -5 Z"
         id="path3475" /></marker><marker
       style="overflow:visible"
       id="TriangleStart"
       refX="0"
       refY="0"
       orient="auto-start-reverse"
       inkscape:stockid="TriangleStart"
       markerWidth="4.9916334"
       markerHeight="5.6666179"
       viewBox="0 0 4.9916334 5.6666178"
       inkscape:isstock="true"
       inkscape:collect="always"
       preserveAspectRatio="xMidYMid"><path
         transform="scale(0.5)"
         style="fill:context-stroke;fill-rule:evenodd;stroke:context-stroke;stroke-width:1pt"
         d="M 5.77,0 -2.88,5 V -5 Z"
         id="path135" /></marker><inkscape:path-effect
       effect="bspline"
       id="path-effect3447"
       is_visible="true"
       lpeversion="1"
       weight="33.333333"
       steps="2"
       helper_size="0"
       apply_no_weight="true"
       apply_with_weight="true"
       only_selected="false" /><inkscape:path-effect
       effect="bspline"
       id="path-effect3443"
       is_visible="true"
       lpeversion="1"
       weight="33.333333"
       steps="2"
       helper_size="0"
       apply_no_weight="true"
       apply_with_weight="true"
       only_selected="false" /><inkscape:path-effect
       effect="bspline"
       id="path-effect2005"
       is_visible="true"
       lpeversion="1"
       weight="33.333333"
       steps="2"
       helper_size="0"
       apply_no_weight="true"
       apply_with_weight="true"
       only_selected="false" /><style
       type="text/css"
       id="style798"><![CDATA[
    .svglite line, .svglite polyline, .svglite polygon, .svglite path, .svglite rect, .svglite circle {
      fill: none;
      stroke: #000000;
      stroke-linecap: round;
      stroke-linejoin: round;
      stroke-miterlimit: 10.00;
    }
    .svglite text {
      white-space: pre;
    }
  ]]></style></defs><defs
     id="defs807"><clipPath
       id="cpMC4wMHw1NzYuMDB8MC4wMHw0MzIuMDA="><rect
         x="0.00"
         y="0.00"
         width="576.00"
         height="432.00"
         id="rect804" /></clipPath></defs><defs
     id="defs814"><clipPath
       id="cpMC4wMHwyODguMDB8MC4wMHwyMTYuMDA="><rect
         x="0.00"
         y="0.00"
         width="288.00"
         height="216.00"
         id="rect811" /></clipPath></defs><defs
     id="defs825"><clipPath
       id="cpNTAuOTh8MjE0LjE0fDUuNDh8MTg0LjEw"><rect
         x="50.98"
         y="5.48"
         width="163.15"
         height="178.62"
         id="rect822" /></clipPath></defs><defs
     id="defs926"><clipPath
       id="cpMjg4LjAwfDU3Ni4wMHw3LjczfDIwOC4yNw=="><rect
         x="288.00"
         y="7.73"
         width="288.00"
         height="200.54"
         id="rect923" /></clipPath></defs><defs
     id="defs937"><clipPath
       id="cpMzM4Ljk4fDUwMi4xNHwxMy4yMXwxNzYuMzc="><rect
         x="338.98"
         y="13.21"
         width="163.15"
         height="163.15"
         id="rect934" /></clipPath></defs><defs
     id="defs1098"><clipPath
       id="cpMC4wMHwyODguMDB8MjE2LjAwfDQzMi4wMA=="><rect
         x="0.00"
         y="216.00"
         width="288.00"
         height="216.00"
         id="rect1095" /></clipPath></defs><defs
     id="defs1109"><clipPath
       id="cpNTAuOTh8MjE0LjE0fDIyMS40OHw0MDAuMTA="><rect
         x="50.98"
         y="221.48"
         width="163.15"
         height="178.62"
         id="rect1106" /></clipPath></defs><defs
     id="defs1188"><clipPath
       id="cpMjg4LjAwfDU3Ni4wMHwyMjMuNzN8NDI0LjI3"><rect
         x="288.00"
         y="223.73"
         width="288.00"
         height="200.54"
         id="rect1185" /></clipPath></defs><defs
     id="defs1199"><clipPath
       id="cpMzM4Ljk4fDUwMi4xNHwyMjkuMjF8MzkyLjM3"><rect
         x="338.98"
         y="229.21"
         width="163.15"
         height="163.15"
         id="rect1196" /></clipPath></defs><g
     id="g1870"
     transform="matrix(0.74040143,0,0,0.74040143,78.035333,109.34292)"
     style="stroke-width:1.35062"><rect
       width="100%"
       height="100%"
       style="fill:none;stroke:none;stroke-width:1.82417"
       id="rect802"
       x="0"
       y="0" /><g
       clip-path="url(#cpMC4wMHw1NzYuMDB8MC4wMHw0MzIuMDA=)"
       id="g809"
       style="stroke-width:1.35062" /><g
       clip-path="url(#cpMC4wMHwyODguMDB8MC4wMHwyMTYuMDA=)"
       id="g818"
       style="stroke-width:1.35062"><rect
         x="0"
         y="0"
         width="288"
         height="216"
         style="fill:#ffffff;stroke:#ffffff;stroke-width:1.44516"
         id="rect816" /></g><g
       clip-path="url(#cpMC4wMHw1NzYuMDB8MC4wMHw0MzIuMDA=)"
       id="g820"
       style="stroke-width:1.35062" /><g
       clip-path="url(#cpNTAuOTh8MjE0LjE0fDUuNDh8MTg0LjEw)"
       id="g875"
       style="stroke-width:1.35062"><rect
         x="50.98"
         y="5.48"
         width="163.14999"
         height="178.62"
         style="fill:#ffffff;stroke:none;stroke-width:1.44516"
         id="rect827" /><polyline
         points="50.98,159.06 214.14,159.06 "
         style="stroke:#ebebeb;stroke-width:0.715828;stroke-linecap:butt"
         id="polyline829" /><polyline
         points="50.98,125.23 214.14,125.23 "
         style="stroke:#ebebeb;stroke-width:0.715828;stroke-linecap:butt"
         id="polyline831" /><polyline
         points="50.98,91.40 214.14,91.40 "
         style="stroke:#ebebeb;stroke-width:0.715828;stroke-linecap:butt"
         id="polyline833" /><polyline
         points="50.98,57.58 214.14,57.58 "
         style="stroke:#ebebeb;stroke-width:0.715828;stroke-linecap:butt"
         id="polyline835" /><polyline
         points="50.98,23.75 214.14,23.75 "
         style="stroke:#ebebeb;stroke-width:0.715828;stroke-linecap:butt"
         id="polyline837" /><polyline
         points="83.12,184.10 83.12,5.48 "
         style="stroke:#ebebeb;stroke-width:0.715828;stroke-linecap:butt"
         id="polyline839" /><polyline
         points="124.32,184.10 124.32,5.48 "
         style="stroke:#ebebeb;stroke-width:0.715828;stroke-linecap:butt"
         id="polyline841" /><polyline
         points="165.52,184.10 165.52,5.48 "
         style="stroke:#ebebeb;stroke-width:0.715828;stroke-linecap:butt"
         id="polyline843" /><polyline
         points="206.72,184.10 206.72,5.48 "
         style="stroke:#ebebeb;stroke-width:0.715828;stroke-linecap:butt"
         id="polyline845" /><polyline
         points="50.98,175.98 214.14,175.98 "
         style="stroke:#ebebeb;stroke-width:1.44516;stroke-linecap:butt"
         id="polyline847" /><polyline
         points="50.98,142.15 214.14,142.15 "
         style="stroke:#ebebeb;stroke-width:1.44516;stroke-linecap:butt"
         id="polyline849" /><polyline
         points="50.98,108.32 214.14,108.32 "
         style="stroke:#ebebeb;stroke-width:1.44516;stroke-linecap:butt"
         id="polyline851" /><polyline
         points="50.98,74.49 214.14,74.49 "
         style="stroke:#ebebeb;stroke-width:1.44516;stroke-linecap:butt"
         id="polyline853" /><polyline
         points="50.98,40.66 214.14,40.66 "
         style="stroke:#ebebeb;stroke-width:1.44516;stroke-linecap:butt"
         id="polyline855" /><polyline
         points="50.98,6.83 214.14,6.83 "
         style="stroke:#ebebeb;stroke-width:1.44516;stroke-linecap:butt"
         id="polyline857" /><polyline
         points="62.52,184.10 62.52,5.48 "
         style="stroke:#ebebeb;stroke-width:1.44516;stroke-linecap:butt"
         id="polyline859" /><polyline
         points="103.72,184.10 103.72,5.48 "
         style="stroke:#ebebeb;stroke-width:1.44516;stroke-linecap:butt"
         id="polyline861" /><polyline
         points="144.92,184.10 144.92,5.48 "
         style="stroke:#ebebeb;stroke-width:1.44516;stroke-linecap:butt"
         id="polyline863" /><polyline
         points="186.12,184.10 186.12,5.48 "
         style="stroke:#ebebeb;stroke-width:1.44516;stroke-linecap:butt"
         id="polyline865" /><polygon
         points="59.85,133.27 60.14,130.86 60.43,128.36 60.72,125.79 61.01,123.16 61.3,120.48 61.59,117.72 61.88,114.9 62.17,112.04 62.46,109.14 62.75,106.19 63.04,103.2 63.33,100.18 63.62,97.14 63.91,94.08 64.21,91 64.5,87.92 64.79,84.84 65.08,81.76 65.37,78.7 65.66,75.65 65.95,72.64 66.24,69.66 66.53,66.71 66.82,63.82 67.11,60.98 67.4,58.19 67.69,55.46 67.98,52.82 68.27,50.26 68.56,47.76 68.85,45.35 69.14,43.06 69.43,40.85 69.72,38.73 70.01,36.73 70.3,34.85 70.59,33.07 70.88,31.39 71.17,29.86 71.46,28.44 71.75,27.13 72.04,25.94 72.33,24.9 72.62,23.98 72.91,23.16 73.2,22.49 73.49,21.95 73.78,21.53 74.07,21.21 74.36,21.05 74.65,21 74.94,21.06 75.24,21.23 75.53,21.54 75.82,21.96 76.11,22.47 76.4,23.1 76.69,23.85 76.98,24.68 77.27,25.6 77.56,26.64 77.85,27.76 78.14,28.96 78.43,30.23 78.72,31.61 79.01,33.05 79.3,34.55 79.59,36.12 79.88,37.76 80.17,39.45 80.46,41.19 80.75,42.98 81.04,44.82 81.33,46.69 81.62,48.6 81.91,50.54 82.2,52.51 82.49,54.49 82.78,56.5 83.07,58.52 83.36,60.55 83.65,62.58 83.94,64.63 84.23,66.66 84.52,68.7 84.81,70.73 85.1,72.75 85.39,74.75 85.68,76.75 85.97,78.72 86.26,80.67 86.56,82.6 86.85,84.51 87.14,86.39 87.43,88.23 87.72,90.06 88.01,91.85 88.3,93.61 88.59,95.33 88.88,97.03 89.17,98.68 89.46,100.3 89.75,101.88 90.04,103.44 90.33,104.94 90.62,106.41 90.91,107.85 91.2,109.25 91.49,110.6 91.78,111.92 92.07,113.21 92.36,114.45 92.65,115.65 92.94,116.82 93.23,117.95 93.52,119.03 93.81,120.08 94.1,121.09 94.39,122.07 94.68,122.99 94.97,123.88 95.26,124.74 95.55,125.55 95.84,126.32 96.13,127.06 96.42,127.77 96.71,128.42 97,129.03 97.29,129.62 97.59,130.16 97.88,130.66 98.17,131.13 98.46,131.57 98.75,131.97 99.04,132.32 99.33,132.66 99.62,132.96 99.91,133.22 100.2,133.45 100.49,133.66 100.78,133.84 101.07,134 101.36,134.13 101.65,134.24 101.94,134.33 102.23,134.41 102.52,134.47 102.81,134.52 103.1,134.56 103.39,134.59 103.68,134.61 103.97,134.63 104.26,134.65 104.55,134.68 104.84,134.7 105.13,134.73 105.42,134.78 105.71,134.83 106,134.89 106.29,134.97 106.58,135.06 106.87,135.17 107.16,135.3 107.45,135.46 107.74,135.63 108.03,135.82 108.32,136.04 108.61,136.29 108.91,136.55 109.2,136.84 109.49,137.16 109.78,137.5 110.07,137.86 110.36,138.25 110.65,138.66 110.94,139.09 111.23,139.54 111.52,140.02 111.81,140.51 112.1,141.02 112.39,141.54 112.68,142.08 112.97,142.64 113.26,143.2 113.55,143.77 113.84,144.35 114.13,144.94 114.42,145.53 114.71,146.12 115,146.71 115.29,147.31 115.58,147.89 115.87,148.48 116.16,149.05 116.45,149.62 116.74,150.18 117.03,150.73 117.32,151.26 117.61,151.79 117.9,152.3 118.19,152.79 118.48,153.26 118.77,153.72 119.06,154.16 119.35,154.58 119.64,154.98 119.94,155.36 120.23,155.72 120.52,156.05 120.81,156.38 121.1,156.67 121.39,156.95 121.68,157.2 121.97,157.44 122.26,157.65 122.55,157.85 122.84,158.03 123.13,158.18 123.42,158.32 123.71,158.44 124,158.55 124.29,158.63 124.58,158.7 124.87,158.76 125.16,158.8 125.45,158.83 125.74,158.85 126.03,158.85 126.32,158.85 126.61,158.83 126.9,158.81 127.19,158.77 127.48,158.73 127.77,158.69 128.06,158.63 128.35,158.58 128.64,158.52 128.93,158.45 129.22,158.39 129.51,158.32 129.8,158.26 130.09,158.19 130.38,158.12 130.67,158.06 130.96,158 131.26,157.94 131.55,157.89 131.84,157.84 132.13,157.8 132.42,157.77 132.71,157.74 133,157.72 133.29,157.71 133.58,157.7 133.87,157.71 134.16,157.72 134.45,157.75 134.74,157.78 135.03,157.83 135.32,157.88 135.61,157.95 135.9,158.03 136.19,158.13 136.48,158.23 136.77,158.34 137.06,158.47 137.35,158.61 137.64,158.76 137.93,158.93 138.22,159.1 138.51,159.29 138.8,159.49 139.09,159.7 139.38,159.92 139.67,160.15 139.96,160.38 140.25,160.63 140.54,160.89 140.83,161.16 141.12,161.43 141.41,161.71 141.7,162 141.99,162.29 142.29,162.59 142.58,162.89 142.87,163.19 143.16,163.5 143.45,163.81 143.74,164.12 144.03,164.43 144.32,164.74 144.61,165.05 144.9,165.35 145.19,165.65 145.48,165.95 145.77,166.25 146.06,166.53 146.35,166.82 146.64,167.09 146.93,167.36 147.22,167.62 147.51,167.88 147.8,168.12 148.09,168.35 148.38,168.57 148.67,168.79 148.96,168.99 149.25,169.18 149.54,169.36 149.83,169.52 150.12,169.68 150.41,169.82 150.7,169.96 150.99,170.07 151.28,170.18 151.57,170.27 151.86,170.36 152.15,170.43 152.44,170.49 152.73,170.53 153.02,170.57 153.31,170.59 153.61,170.61 153.9,170.61 154.19,170.61 154.48,170.59 154.77,170.57 155.06,170.53 155.35,170.49 155.64,170.44 155.93,170.39 156.22,170.32 156.51,170.25 156.8,170.18 157.09,170.1 157.38,170.01 157.67,169.92 157.96,169.83 158.25,169.73 158.54,169.64 158.83,169.54 159.12,169.44 159.41,169.34 159.7,169.24 159.99,169.13 160.28,169.03 160.57,168.94 160.86,168.84 161.15,168.75 161.44,168.66 161.73,168.57 162.02,168.49 162.31,168.41 162.6,168.34 162.89,168.27 163.18,168.21 163.47,168.15 163.76,168.1 164.05,168.06 164.34,168.03 164.63,168 164.93,167.99 165.22,167.98 165.51,167.97 165.8,167.98 166.09,168 166.38,168.03 166.67,168.06 166.96,168.11 167.25,168.16 167.54,168.22 167.83,168.29 168.12,168.38 168.41,168.46 168.7,168.56 168.99,168.67 169.28,168.78 169.57,168.9 169.86,169.03 170.15,169.17 170.44,169.31 170.73,169.46 171.02,169.62 171.31,169.78 171.6,169.94 171.89,170.11 172.18,170.28 172.47,170.45 172.76,170.63 173.05,170.81 173.34,170.99 173.63,171.17 173.92,171.35 174.21,171.53 174.5,171.7 174.79,171.88 175.08,172.06 175.37,172.23 175.66,172.4 175.96,172.56 176.25,172.73 176.54,172.88 176.83,173.03 177.12,173.18 177.41,173.32 177.7,173.46 177.99,173.59 178.28,173.72 178.57,173.83 178.86,173.94 179.15,174.05 179.44,174.15 179.73,174.24 180.02,174.32 180.31,174.4 180.6,174.47 180.89,174.53 181.18,174.59 181.47,174.64 181.76,174.68 182.05,174.71 182.34,174.74 182.63,174.77 182.92,174.78 183.21,174.79 183.5,174.79 183.79,174.79 184.08,174.78 184.37,174.76 184.66,174.74 184.95,174.71 185.24,174.68 185.53,174.65 185.82,174.61 186.11,174.56 186.4,174.51 186.69,174.46 186.98,174.4 187.28,174.34 187.57,174.28 187.86,174.22 188.15,174.15 188.44,174.08 188.73,174.01 189.02,173.94 189.31,173.86 189.6,173.79 189.89,173.72 190.18,173.64 190.47,173.57 190.76,173.5 191.05,173.43 191.34,173.36 191.63,173.3 191.92,173.24 192.21,173.18 192.5,173.12 192.79,173.07 193.08,173.02 193.37,172.97 193.66,172.93 193.95,172.9 194.24,172.86 194.53,172.84 194.82,172.82 195.11,172.8 195.4,172.79 195.69,172.79 195.98,172.79 196.27,172.79 196.56,172.8 196.85,172.82 197.14,172.84 197.43,172.87 197.72,172.9 198.01,172.94 198.31,172.98 198.6,173.02 198.89,173.08 199.18,173.13 199.47,173.19 199.76,173.25 200.05,173.32 200.34,173.38 200.63,173.45 200.92,173.53 201.21,173.6 201.5,173.68 201.79,173.76 202.08,173.84 202.37,173.92 202.66,174 202.95,174.08 203.24,174.16 203.53,174.24 203.82,174.32 204.11,174.4 204.4,174.47 204.69,174.55 204.98,174.62 205.27,174.7 205.56,174.77 205.85,174.84 206.14,174.9 206.43,174.97 206.72,175.03 206.72,175.98 206.43,175.98 206.14,175.98 205.85,175.98 205.56,175.98 205.27,175.98 204.98,175.98 204.69,175.98 204.4,175.98 204.11,175.98 203.82,175.98 203.53,175.98 203.24,175.98 202.95,175.98 202.66,175.98 202.37,175.98 202.08,175.98 201.79,175.98 201.5,175.98 201.21,175.98 200.92,175.98 200.63,175.98 200.34,175.98 200.05,175.98 199.76,175.98 199.47,175.98 199.18,175.98 198.89,175.98 198.6,175.98 198.31,175.98 198.01,175.98 197.72,175.98 197.43,175.98 197.14,175.98 196.85,175.98 196.56,175.98 196.27,175.98 195.98,175.98 195.69,175.98 195.4,175.98 195.11,175.98 194.82,175.98 194.53,175.98 194.24,175.98 193.95,175.98 193.66,175.98 193.37,175.98 193.08,175.98 192.79,175.98 192.5,175.98 192.21,175.98 191.92,175.98 191.63,175.98 191.34,175.98 191.05,175.98 190.76,175.98 190.47,175.98 190.18,175.98 189.89,175.98 189.6,175.98 189.31,175.98 189.02,175.98 188.73,175.98 188.44,175.98 188.15,175.98 187.86,175.98 187.57,175.98 187.28,175.98 186.98,175.98 186.69,175.98 186.4,175.98 186.11,175.98 185.82,175.98 185.53,175.98 185.24,175.98 184.95,175.98 184.66,175.98 184.37,175.98 184.08,175.98 183.79,175.98 183.5,175.98 183.21,175.98 182.92,175.98 182.63,175.98 182.34,175.98 182.05,175.98 181.76,175.98 181.47,175.98 181.18,175.98 180.89,175.98 180.6,175.98 180.31,175.98 180.02,175.98 179.73,175.98 179.44,175.98 179.15,175.98 178.86,175.98 178.57,175.98 178.28,175.98 177.99,175.98 177.7,175.98 177.41,175.98 177.12,175.98 176.83,175.98 176.54,175.98 176.25,175.98 175.96,175.98 175.66,175.98 175.37,175.98 175.08,175.98 174.79,175.98 174.5,175.98 174.21,175.98 173.92,175.98 173.63,175.98 173.34,175.98 173.05,175.98 172.76,175.98 172.47,175.98 172.18,175.98 171.89,175.98 171.6,175.98 171.31,175.98 171.02,175.98 170.73,175.98 170.44,175.98 170.15,175.98 169.86,175.98 169.57,175.98 169.28,175.98 168.99,175.98 168.7,175.98 168.41,175.98 168.12,175.98 167.83,175.98 167.54,175.98 167.25,175.98 166.96,175.98 166.67,175.98 166.38,175.98 166.09,175.98 165.8,175.98 165.51,175.98 165.22,175.98 164.93,175.98 164.63,175.98 164.34,175.98 164.05,175.98 163.76,175.98 163.47,175.98 163.18,175.98 162.89,175.98 162.6,175.98 162.31,175.98 162.02,175.98 161.73,175.98 161.44,175.98 161.15,175.98 160.86,175.98 160.57,175.98 160.28,175.98 159.99,175.98 159.7,175.98 159.41,175.98 159.12,175.98 158.83,175.98 158.54,175.98 158.25,175.98 157.96,175.98 157.67,175.98 157.38,175.98 157.09,175.98 156.8,175.98 156.51,175.98 156.22,175.98 155.93,175.98 155.64,175.98 155.35,175.98 155.06,175.98 154.77,175.98 154.48,175.98 154.19,175.98 153.9,175.98 153.61,175.98 153.31,175.98 153.02,175.98 152.73,175.98 152.44,175.98 152.15,175.98 151.86,175.98 151.57,175.98 151.28,175.98 150.99,175.98 150.7,175.98 150.41,175.98 150.12,175.98 149.83,175.98 149.54,175.98 149.25,175.98 148.96,175.98 148.67,175.98 148.38,175.98 148.09,175.98 147.8,175.98 147.51,175.98 147.22,175.98 146.93,175.98 146.64,175.98 146.35,175.98 146.06,175.98 145.77,175.98 145.48,175.98 145.19,175.98 144.9,175.98 144.61,175.98 144.32,175.98 144.03,175.98 143.74,175.98 143.45,175.98 143.16,175.98 142.87,175.98 142.58,175.98 142.29,175.98 141.99,175.98 141.7,175.98 141.41,175.98 141.12,175.98 140.83,175.98 140.54,175.98 140.25,175.98 139.96,175.98 139.67,175.98 139.38,175.98 139.09,175.98 138.8,175.98 138.51,175.98 138.22,175.98 137.93,175.98 137.64,175.98 137.35,175.98 137.06,175.98 136.77,175.98 136.48,175.98 136.19,175.98 135.9,175.98 135.61,175.98 135.32,175.98 135.03,175.98 134.74,175.98 134.45,175.98 134.16,175.98 133.87,175.98 133.58,175.98 133.29,175.98 133,175.98 132.71,175.98 132.42,175.98 132.13,175.98 131.84,175.98 131.55,175.98 131.26,175.98 130.96,175.98 130.67,175.98 130.38,175.98 130.09,175.98 129.8,175.98 129.51,175.98 129.22,175.98 128.93,175.98 128.64,175.98 128.35,175.98 128.06,175.98 127.77,175.98 127.48,175.98 127.19,175.98 126.9,175.98 126.61,175.98 126.32,175.98 126.03,175.98 125.74,175.98 125.45,175.98 125.16,175.98 124.87,175.98 124.58,175.98 124.29,175.98 124,175.98 123.71,175.98 123.42,175.98 123.13,175.98 122.84,175.98 122.55,175.98 122.26,175.98 121.97,175.98 121.68,175.98 121.39,175.98 121.1,175.98 120.81,175.98 120.52,175.98 120.23,175.98 119.94,175.98 119.64,175.98 119.35,175.98 119.06,175.98 118.77,175.98 118.48,175.98 118.19,175.98 117.9,175.98 117.61,175.98 117.32,175.98 117.03,175.98 116.74,175.98 116.45,175.98 116.16,175.98 115.87,175.98 115.58,175.98 115.29,175.98 115,175.98 114.71,175.98 114.42,175.98 114.13,175.98 113.84,175.98 113.55,175.98 113.26,175.98 112.97,175.98 112.68,175.98 112.39,175.98 112.1,175.98 111.81,175.98 111.52,175.98 111.23,175.98 110.94,175.98 110.65,175.98 110.36,175.98 110.07,175.98 109.78,175.98 109.49,175.98 109.2,175.98 108.91,175.98 108.61,175.98 108.32,175.98 108.03,175.98 107.74,175.98 107.45,175.98 107.16,175.98 106.87,175.98 106.58,175.98 106.29,175.98 106,175.98 105.71,175.98 105.42,175.98 105.13,175.98 104.84,175.98 104.55,175.98 104.26,175.98 103.97,175.98 103.68,175.98 103.39,175.98 103.1,175.98 102.81,175.98 102.52,175.98 102.23,175.98 101.94,175.98 101.65,175.98 101.36,175.98 101.07,175.98 100.78,175.98 100.49,175.98 100.2,175.98 99.91,175.98 99.62,175.98 99.33,175.98 99.04,175.98 98.75,175.98 98.46,175.98 98.17,175.98 97.88,175.98 97.59,175.98 97.29,175.98 97,175.98 96.71,175.98 96.42,175.98 96.13,175.98 95.84,175.98 95.55,175.98 95.26,175.98 94.97,175.98 94.68,175.98 94.39,175.98 94.1,175.98 93.81,175.98 93.52,175.98 93.23,175.98 92.94,175.98 92.65,175.98 92.36,175.98 92.07,175.98 91.78,175.98 91.49,175.98 91.2,175.98 90.91,175.98 90.62,175.98 90.33,175.98 90.04,175.98 89.75,175.98 89.46,175.98 89.17,175.98 88.88,175.98 88.59,175.98 88.3,175.98 88.01,175.98 87.72,175.98 87.43,175.98 87.14,175.98 86.85,175.98 86.56,175.98 86.26,175.98 85.97,175.98 85.68,175.98 85.39,175.98 85.1,175.98 84.81,175.98 84.52,175.98 84.23,175.98 83.94,175.98 83.65,175.98 83.36,175.98 83.07,175.98 82.78,175.98 82.49,175.98 82.2,175.98 81.91,175.98 81.62,175.98 81.33,175.98 81.04,175.98 80.75,175.98 80.46,175.98 80.17,175.98 79.88,175.98 79.59,175.98 79.3,175.98 79.01,175.98 78.72,175.98 78.43,175.98 78.14,175.98 77.85,175.98 77.56,175.98 77.27,175.98 76.98,175.98 76.69,175.98 76.4,175.98 76.11,175.98 75.82,175.98 75.53,175.98 75.24,175.98 74.94,175.98 74.65,175.98 74.36,175.98 74.07,175.98 73.78,175.98 73.49,175.98 73.2,175.98 72.91,175.98 72.62,175.98 72.33,175.98 72.04,175.98 71.75,175.98 71.46,175.98 71.17,175.98 70.88,175.98 70.59,175.98 70.3,175.98 70.01,175.98 69.72,175.98 69.43,175.98 69.14,175.98 68.85,175.98 68.56,175.98 68.27,175.98 67.98,175.98 67.69,175.98 67.4,175.98 67.11,175.98 66.82,175.98 66.53,175.98 66.24,175.98 65.95,175.98 65.66,175.98 65.37,175.98 65.08,175.98 64.79,175.98 64.5,175.98 64.21,175.98 63.91,175.98 63.62,175.98 63.33,175.98 63.04,175.98 62.75,175.98 62.46,175.98 62.17,175.98 61.88,175.98 61.59,175.98 61.3,175.98 61.01,175.98 60.72,175.98 60.43,175.98 60.14,175.98 59.85,175.98 59.56,175.98 59.27,175.98 58.98,175.98 58.69,175.98 58.4,175.98 58.4,144.24 58.69,142.2 58.98,140.09 59.27,137.91 59.56,135.62 "
         style="stroke:none;stroke-width:0;stroke-linecap:butt"
         id="polygon867" /><polyline
         points="58.40,144.24 58.69,142.20 58.98,140.09 59.27,137.91 59.56,135.62 59.85,133.27 60.14,130.86 60.43,128.36 60.72,125.79 61.01,123.16 61.30,120.48 61.59,117.72 61.88,114.90 62.17,112.04 62.46,109.14 62.75,106.19 63.04,103.20 63.33,100.18 63.62,97.14 63.91,94.08 64.21,91.00 64.50,87.92 64.79,84.84 65.08,81.76 65.37,78.70 65.66,75.65 65.95,72.64 66.24,69.66 66.53,66.71 66.82,63.82 67.11,60.98 67.40,58.19 67.69,55.46 67.98,52.82 68.27,50.26 68.56,47.76 68.85,45.35 69.14,43.06 69.43,40.85 69.72,38.73 70.01,36.73 70.30,34.85 70.59,33.07 70.88,31.39 71.17,29.86 71.46,28.44 71.75,27.13 72.04,25.94 72.33,24.90 72.62,23.98 72.91,23.16 73.20,22.49 73.49,21.95 73.78,21.53 74.07,21.21 74.36,21.05 74.65,21.00 74.94,21.06 75.24,21.23 75.53,21.54 75.82,21.96 76.11,22.47 76.40,23.10 76.69,23.85 76.98,24.68 77.27,25.60 77.56,26.64 77.85,27.76 78.14,28.96 78.43,30.23 78.72,31.61 79.01,33.05 79.30,34.55 79.59,36.12 79.88,37.76 80.17,39.45 80.46,41.19 80.75,42.98 81.04,44.82 81.33,46.69 81.62,48.60 81.91,50.54 82.20,52.51 82.49,54.49 82.78,56.50 83.07,58.52 83.36,60.55 83.65,62.58 83.94,64.63 84.23,66.66 84.52,68.70 84.81,70.73 85.10,72.75 85.39,74.75 85.68,76.75 85.97,78.72 86.26,80.67 86.56,82.60 86.85,84.51 87.14,86.39 87.43,88.23 87.72,90.06 88.01,91.85 88.30,93.61 88.59,95.33 88.88,97.03 89.17,98.68 89.46,100.30 89.75,101.88 90.04,103.44 90.33,104.94 90.62,106.41 90.91,107.85 91.20,109.25 91.49,110.60 91.78,111.92 92.07,113.21 92.36,114.45 92.65,115.65 92.94,116.82 93.23,117.95 93.52,119.03 93.81,120.08 94.10,121.09 94.39,122.07 94.68,122.99 94.97,123.88 95.26,124.74 95.55,125.55 95.84,126.32 96.13,127.06 96.42,127.77 96.71,128.42 97.00,129.03 97.29,129.62 97.59,130.16 97.88,130.66 98.17,131.13 98.46,131.57 98.75,131.97 99.04,132.32 99.33,132.66 99.62,132.96 99.91,133.22 100.20,133.45 100.49,133.66 100.78,133.84 101.07,134.00 101.36,134.13 101.65,134.24 101.94,134.33 102.23,134.41 102.52,134.47 102.81,134.52 103.10,134.56 103.39,134.59 103.68,134.61 103.97,134.63 104.26,134.65 104.55,134.68 104.84,134.70 105.13,134.73 105.42,134.78 105.71,134.83 106.00,134.89 106.29,134.97 106.58,135.06 106.87,135.17 107.16,135.30 107.45,135.46 107.74,135.63 108.03,135.82 108.32,136.04 108.61,136.29 108.91,136.55 109.20,136.84 109.49,137.16 109.78,137.50 110.07,137.86 110.36,138.25 110.65,138.66 110.94,139.09 111.23,139.54 111.52,140.02 111.81,140.51 112.10,141.02 112.39,141.54 112.68,142.08 112.97,142.64 113.26,143.20 113.55,143.77 113.84,144.35 114.13,144.94 114.42,145.53 114.71,146.12 115.00,146.71 115.29,147.31 115.58,147.89 115.87,148.48 116.16,149.05 116.45,149.62 116.74,150.18 117.03,150.73 117.32,151.26 117.61,151.79 117.90,152.30 118.19,152.79 118.48,153.26 118.77,153.72 119.06,154.16 119.35,154.58 119.64,154.98 119.94,155.36 120.23,155.72 120.52,156.05 120.81,156.38 121.10,156.67 121.39,156.95 121.68,157.20 121.97,157.44 122.26,157.65 122.55,157.85 122.84,158.03 123.13,158.18 123.42,158.32 123.71,158.44 124.00,158.55 124.29,158.63 124.58,158.70 124.87,158.76 125.16,158.80 125.45,158.83 125.74,158.85 126.03,158.85 126.32,158.85 126.61,158.83 126.90,158.81 127.19,158.77 127.48,158.73 127.77,158.69 128.06,158.63 128.35,158.58 128.64,158.52 128.93,158.45 129.22,158.39 129.51,158.32 129.80,158.26 130.09,158.19 130.38,158.12 130.67,158.06 130.96,158.00 131.26,157.94 131.55,157.89 131.84,157.84 132.13,157.80 132.42,157.77 132.71,157.74 133.00,157.72 133.29,157.71 133.58,157.70 133.87,157.71 134.16,157.72 134.45,157.75 134.74,157.78 135.03,157.83 135.32,157.88 135.61,157.95 135.90,158.03 136.19,158.13 136.48,158.23 136.77,158.34 137.06,158.47 137.35,158.61 137.64,158.76 137.93,158.93 138.22,159.10 138.51,159.29 138.80,159.49 139.09,159.70 139.38,159.92 139.67,160.15 139.96,160.38 140.25,160.63 140.54,160.89 140.83,161.16 141.12,161.43 141.41,161.71 141.70,162.00 141.99,162.29 142.29,162.59 142.58,162.89 142.87,163.19 143.16,163.50 143.45,163.81 143.74,164.12 144.03,164.43 144.32,164.74 144.61,165.05 144.90,165.35 145.19,165.65 145.48,165.95 145.77,166.25 146.06,166.53 146.35,166.82 146.64,167.09 146.93,167.36 147.22,167.62 147.51,167.88 147.80,168.12 148.09,168.35 148.38,168.57 148.67,168.79 148.96,168.99 149.25,169.18 149.54,169.36 149.83,169.52 150.12,169.68 150.41,169.82 150.70,169.96 150.99,170.07 151.28,170.18 151.57,170.27 151.86,170.36 152.15,170.43 152.44,170.49 152.73,170.53 153.02,170.57 153.31,170.59 153.61,170.61 153.90,170.61 154.19,170.61 154.48,170.59 154.77,170.57 155.06,170.53 155.35,170.49 155.64,170.44 155.93,170.39 156.22,170.32 156.51,170.25 156.80,170.18 157.09,170.10 157.38,170.01 157.67,169.92 157.96,169.83 158.25,169.73 158.54,169.64 158.83,169.54 159.12,169.44 159.41,169.34 159.70,169.24 159.99,169.13 160.28,169.03 160.57,168.94 160.86,168.84 161.15,168.75 161.44,168.66 161.73,168.57 162.02,168.49 162.31,168.41 162.60,168.34 162.89,168.27 163.18,168.21 163.47,168.15 163.76,168.10 164.05,168.06 164.34,168.03 164.63,168.00 164.93,167.99 165.22,167.98 165.51,167.97 165.80,167.98 166.09,168.00 166.38,168.03 166.67,168.06 166.96,168.11 167.25,168.16 167.54,168.22 167.83,168.29 168.12,168.38 168.41,168.46 168.70,168.56 168.99,168.67 169.28,168.78 169.57,168.90 169.86,169.03 170.15,169.17 170.44,169.31 170.73,169.46 171.02,169.62 171.31,169.78 171.60,169.94 171.89,170.11 172.18,170.28 172.47,170.45 172.76,170.63 173.05,170.81 173.34,170.99 173.63,171.17 173.92,171.35 174.21,171.53 174.50,171.70 174.79,171.88 175.08,172.06 175.37,172.23 175.66,172.40 175.96,172.56 176.25,172.73 176.54,172.88 176.83,173.03 177.12,173.18 177.41,173.32 177.70,173.46 177.99,173.59 178.28,173.72 178.57,173.83 178.86,173.94 179.15,174.05 179.44,174.15 179.73,174.24 180.02,174.32 180.31,174.40 180.60,174.47 180.89,174.53 181.18,174.59 181.47,174.64 181.76,174.68 182.05,174.71 182.34,174.74 182.63,174.77 182.92,174.78 183.21,174.79 183.50,174.79 183.79,174.79 184.08,174.78 184.37,174.76 184.66,174.74 184.95,174.71 185.24,174.68 185.53,174.65 185.82,174.61 186.11,174.56 186.40,174.51 186.69,174.46 186.98,174.40 187.28,174.34 187.57,174.28 187.86,174.22 188.15,174.15 188.44,174.08 188.73,174.01 189.02,173.94 189.31,173.86 189.60,173.79 189.89,173.72 190.18,173.64 190.47,173.57 190.76,173.50 191.05,173.43 191.34,173.36 191.63,173.30 191.92,173.24 192.21,173.18 192.50,173.12 192.79,173.07 193.08,173.02 193.37,172.97 193.66,172.93 193.95,172.90 194.24,172.86 194.53,172.84 194.82,172.82 195.11,172.80 195.40,172.79 195.69,172.79 195.98,172.79 196.27,172.79 196.56,172.80 196.85,172.82 197.14,172.84 197.43,172.87 197.72,172.90 198.01,172.94 198.31,172.98 198.60,173.02 198.89,173.08 199.18,173.13 199.47,173.19 199.76,173.25 200.05,173.32 200.34,173.38 200.63,173.45 200.92,173.53 201.21,173.60 201.50,173.68 201.79,173.76 202.08,173.84 202.37,173.92 202.66,174.00 202.95,174.08 203.24,174.16 203.53,174.24 203.82,174.32 204.11,174.40 204.40,174.47 204.69,174.55 204.98,174.62 205.27,174.70 205.56,174.77 205.85,174.84 206.14,174.90 206.43,174.97 206.72,175.03 "
         style="stroke-width:1.44516;stroke-linecap:butt"
         id="polyline869" /><line
         x1="89.309998"
         y1="175.98"
         x2="89.309998"
         y2="13.6"
         style="stroke:#ff0000;stroke-width:1.44516;stroke-linecap:butt"
         id="line871" /><rect
         x="50.98"
         y="5.48"
         width="163.14999"
         height="178.62"
         style="stroke:#333333;stroke-width:1.44516"
         id="rect873" /></g><g
       clip-path="url(#cpMC4wMHw1NzYuMDB8MC4wMHw0MzIuMDA=)"
       id="g921"
       style="stroke-width:1.35062"><text
         x="46.049999"
         y="179.13"
         text-anchor="end"
         style="font-size:8.8px;font-family:Arial;fill:#4d4d4d;stroke-width:1.82417"
         textLength="26.92"
         lengthAdjust="spacingAndGlyphs"
         id="text877">0.0000</text><text
         x="46.049999"
         y="145.3"
         text-anchor="end"
         style="font-size:8.8px;font-family:Arial;fill:#4d4d4d;stroke-width:1.82417"
         textLength="26.92"
         lengthAdjust="spacingAndGlyphs"
         id="text879">0.0025</text><text
         x="46.049999"
         y="111.47"
         text-anchor="end"
         style="font-size:8.8px;font-family:Arial;fill:#4d4d4d;stroke-width:1.82417"
         textLength="26.92"
         lengthAdjust="spacingAndGlyphs"
         id="text881">0.0050</text><text
         x="46.049999"
         y="77.639999"
         text-anchor="end"
         style="font-size:8.8px;font-family:Arial;fill:#4d4d4d;stroke-width:1.82417"
         textLength="26.92"
         lengthAdjust="spacingAndGlyphs"
         id="text883">0.0075</text><text
         x="46.049999"
         y="43.82"
         text-anchor="end"
         style="font-size:8.8px;font-family:Arial;fill:#4d4d4d;stroke-width:1.82417"
         textLength="26.92"
         lengthAdjust="spacingAndGlyphs"
         id="text885">0.0100</text><text
         x="46.049999"
         y="9.9899998"
         text-anchor="end"
         style="font-size:8.8px;font-family:Arial;fill:#4d4d4d;stroke-width:1.82417"
         textLength="26.92"
         lengthAdjust="spacingAndGlyphs"
         id="text887">0.0125</text><polyline
         points="48.24,175.98 50.98,175.98 "
         style="stroke:#333333;stroke-width:1.44516;stroke-linecap:butt"
         id="polyline889" /><polyline
         points="48.24,142.15 50.98,142.15 "
         style="stroke:#333333;stroke-width:1.44516;stroke-linecap:butt"
         id="polyline891" /><polyline
         points="48.24,108.32 50.98,108.32 "
         style="stroke:#333333;stroke-width:1.44516;stroke-linecap:butt"
         id="polyline893" /><polyline
         points="48.24,74.49 50.98,74.49 "
         style="stroke:#333333;stroke-width:1.44516;stroke-linecap:butt"
         id="polyline895" /><polyline
         points="48.24,40.66 50.98,40.66 "
         style="stroke:#333333;stroke-width:1.44516;stroke-linecap:butt"
         id="polyline897" /><polyline
         points="48.24,6.83 50.98,6.83 "
         style="stroke:#333333;stroke-width:1.44516;stroke-linecap:butt"
         id="polyline899" /><polyline
         points="62.52,186.84 62.52,184.10 "
         style="stroke:#333333;stroke-width:1.44516;stroke-linecap:butt"
         id="polyline901" /><polyline
         points="103.72,186.84 103.72,184.10 "
         style="stroke:#333333;stroke-width:1.44516;stroke-linecap:butt"
         id="polyline903" /><polyline
         points="144.92,186.84 144.92,184.10 "
         style="stroke:#333333;stroke-width:1.44516;stroke-linecap:butt"
         id="polyline905" /><polyline
         points="186.12,186.84 186.12,184.10 "
         style="stroke:#333333;stroke-width:1.44516;stroke-linecap:butt"
         id="polyline907" /><text
         x="62.52"
         y="195.33"
         text-anchor="middle"
         style="font-size:8.8px;font-family:Arial;fill:#4d4d4d;stroke-width:1.82417"
         textLength="4.9000001"
         lengthAdjust="spacingAndGlyphs"
         id="text909">0</text><text
         x="103.72"
         y="195.33"
         text-anchor="middle"
         style="font-size:8.8px;font-family:Arial;fill:#4d4d4d;stroke-width:1.82417"
         textLength="14.69"
         lengthAdjust="spacingAndGlyphs"
         id="text911">100</text><text
         x="144.92"
         y="195.33"
         text-anchor="middle"
         style="font-size:8.8px;font-family:Arial;fill:#4d4d4d;stroke-width:1.82417"
         textLength="14.69"
         lengthAdjust="spacingAndGlyphs"
         id="text913">200</text><text
         x="186.12"
         y="195.33"
         text-anchor="middle"
         style="font-size:8.8px;font-family:Arial;fill:#4d4d4d;stroke-width:1.82417"
         textLength="14.69"
         lengthAdjust="spacingAndGlyphs"
         id="text915">300</text><text
         x="132.56"
         y="208.10001"
         text-anchor="middle"
         style="font-size:11px;font-family:Arial;stroke-width:1.82417"
         textLength="20.780001"
         lengthAdjust="spacingAndGlyphs"
         id="text917">fstat</text><text
         x="5.0500002"
         y="15.12"
         style="font-weight:bold;font-size:14px;font-family:Arial;stroke-width:1.35062"
         textLength="10.11"
         lengthAdjust="spacingAndGlyphs"
         id="text919">A</text></g><g
       clip-path="url(#cpMjg4LjAwfDU3Ni4wMHw3LjczfDIwOC4yNw==)"
       id="g930"
       style="stroke-width:1.35062"><rect
         x="288"
         y="7.73"
         width="288"
         height="200.53999"
         style="fill:#ffffff;stroke:#ffffff;stroke-width:1.44516"
         id="rect928" /></g><g
       clip-path="url(#cpMC4wMHw1NzYuMDB8MC4wMHw0MzIuMDA=)"
       id="g932"
       style="stroke-width:1.35062" /><g
       clip-path="url(#cpMzM4Ljk4fDUwMi4xNHwxMy4yMXwxNzYuMzc=)"
       id="g1037"
       style="stroke-width:1.35062"><rect
         x="338.98001"
         y="13.21"
         width="163.14999"
         height="163.14999"
         style="fill:#ebebeb;stroke:none;stroke-width:1.44516"
         id="rect939" /><polyline
         points="338.98,159.88 502.14,159.88 "
         style="stroke:#ffffff;stroke-width:0.715828;stroke-linecap:butt"
         id="polyline941" /><polyline
         points="338.98,125.75 502.14,125.75 "
         style="stroke:#ffffff;stroke-width:0.715828;stroke-linecap:butt"
         id="polyline943" /><polyline
         points="338.98,91.62 502.14,91.62 "
         style="stroke:#ffffff;stroke-width:0.715828;stroke-linecap:butt"
         id="polyline945" /><polyline
         points="338.98,57.49 502.14,57.49 "
         style="stroke:#ffffff;stroke-width:0.715828;stroke-linecap:butt"
         id="polyline947" /><polyline
         points="338.98,23.36 502.14,23.36 "
         style="stroke:#ffffff;stroke-width:0.715828;stroke-linecap:butt"
         id="polyline949" /><polyline
         points="342.57,176.37 342.57,13.21 "
         style="stroke:#ffffff;stroke-width:0.715828;stroke-linecap:butt"
         id="polyline951" /><polyline
         points="378.70,176.37 378.70,13.21 "
         style="stroke:#ffffff;stroke-width:0.715828;stroke-linecap:butt"
         id="polyline953" /><polyline
         points="414.83,176.37 414.83,13.21 "
         style="stroke:#ffffff;stroke-width:0.715828;stroke-linecap:butt"
         id="polyline955" /><polyline
         points="450.96,176.37 450.96,13.21 "
         style="stroke:#ffffff;stroke-width:0.715828;stroke-linecap:butt"
         id="polyline957" /><polyline
         points="487.09,176.37 487.09,13.21 "
         style="stroke:#ffffff;stroke-width:0.715828;stroke-linecap:butt"
         id="polyline959" /><polyline
         points="338.98,142.81 502.14,142.81 "
         style="stroke:#ffffff;stroke-width:1.44516;stroke-linecap:butt"
         id="polyline961" /><polyline
         points="338.98,108.68 502.14,108.68 "
         style="stroke:#ffffff;stroke-width:1.44516;stroke-linecap:butt"
         id="polyline963" /><polyline
         points="338.98,74.56 502.14,74.56 "
         style="stroke:#ffffff;stroke-width:1.44516;stroke-linecap:butt"
         id="polyline965" /><polyline
         points="338.98,40.43 502.14,40.43 "
         style="stroke:#ffffff;stroke-width:1.44516;stroke-linecap:butt"
         id="polyline967" /><polyline
         points="360.63,176.37 360.63,13.21 "
         style="stroke:#ffffff;stroke-width:1.44516;stroke-linecap:butt"
         id="polyline969" /><polyline
         points="396.76,176.37 396.76,13.21 "
         style="stroke:#ffffff;stroke-width:1.44516;stroke-linecap:butt"
         id="polyline971" /><polyline
         points="432.89,176.37 432.89,13.21 "
         style="stroke:#ffffff;stroke-width:1.44516;stroke-linecap:butt"
         id="polyline973" /><polyline
         points="469.02,176.37 469.02,13.21 "
         style="stroke:#ffffff;stroke-width:1.44516;stroke-linecap:butt"
         id="polyline975" /><polygon
         points="373.39,164.9 378.18,156.61 382.97,164.9 "
         style="fill:#c19039;stroke:none;stroke-width:0.958939"
         id="polygon977" /><circle
         cx="369.64999"
         cy="80.529999"
         r="3.5599999"
         style="fill:#0c335e;stroke:none;stroke-width:0.958939"
         id="circle979" /><circle
         cx="357.69"
         cy="23.68"
         r="3.5599999"
         style="fill:#0c335e;stroke:none;stroke-width:0.958939"
         id="circle981" /><polygon
         points="357,125.75 361.79,117.45 366.58,125.75 "
         style="fill:#c19039;stroke:none;stroke-width:0.958939"
         id="polygon983" /><polygon
         points="411.33,171.71 416.11,163.42 420.9,171.71 "
         style="fill:#c19039;stroke:none;stroke-width:0.958939"
         id="polygon985" /><polygon
         points="363.63,133.14 368.41,124.85 373.2,133.14 "
         style="fill:#c19039;stroke:none;stroke-width:0.958939"
         id="polygon987" /><circle
         cx="383.70001"
         cy="64.580002"
         r="3.5599999"
         style="fill:#0c335e;stroke:none;stroke-width:0.958939"
         id="circle989" /><polygon
         points="361.09,140.48 365.87,132.19 370.66,140.48 "
         style="fill:#c19039;stroke:none;stroke-width:0.958939"
         id="polygon991" /><polygon
         points="351.22,130.81 356.01,122.52 360.8,130.81 "
         style="fill:#c19039;stroke:none;stroke-width:0.958939"
         id="polygon993" /><circle
         cx="491.64001"
         cy="78.050003"
         r="3.5599999"
         style="fill:#0c335e;stroke:none;stroke-width:0.958939"
         id="circle995" /><circle
         cx="494.72"
         cy="74.82"
         r="3.5599999"
         style="fill:#0c335e;stroke:none;stroke-width:0.958939"
         id="circle997" /><polygon
         points="371.01,143.31 375.8,135.01 380.59,143.31 "
         style="fill:#c19039;stroke:none;stroke-width:0.958939"
         id="polygon999" /><circle
         cx="407.60001"
         cy="104.89"
         r="3.5599999"
         style="fill:#0c335e;stroke:none;stroke-width:0.958939"
         id="circle1001" /><circle
         cx="361.03"
         cy="42.330002"
         r="3.5599999"
         style="fill:#0c335e;stroke:none;stroke-width:0.958939"
         id="circle1003" /><polygon
         points="441.19,157.15 445.98,148.85 450.77,157.15 "
         style="fill:#c19039;stroke:none;stroke-width:0.958939"
         id="polygon1005" /><circle
         cx="465.91"
         cy="90.43"
         r="3.5599999"
         style="fill:#0c335e;stroke:none;stroke-width:0.958939"
         id="circle1007" /><circle
         cx="433.14999"
         cy="102.04"
         r="3.5599999"
         style="fill:#0c335e;stroke:none;stroke-width:0.958939"
         id="circle1009" /><circle
         cx="479.60001"
         cy="90.709999"
         r="3.5599999"
         style="fill:#0c335e;stroke:none;stroke-width:0.958939"
         id="circle1011" /><circle
         cx="452.85999"
         cy="107.9"
         r="3.5599999"
         style="fill:#0c335e;stroke:none;stroke-width:0.958939"
         id="circle1013" /><circle
         cx="372.89999"
         cy="75.199997"
         r="3.5599999"
         style="fill:#0c335e;stroke:none;stroke-width:0.958939"
         id="circle1015" /><circle
         cx="373.95001"
         cy="58.27"
         r="3.5599999"
         style="fill:#0c335e;stroke:none;stroke-width:0.958939"
         id="circle1017" /><polygon
         points="356.95,125.7 361.74,117.4 366.53,125.7 "
         style="fill:#c19039;stroke:none;stroke-width:0.958939"
         id="polygon1019" /><circle
         cx="346.39999"
         cy="20.629999"
         r="3.5599999"
         style="fill:#0c335e;stroke:none;stroke-width:0.958939"
         id="circle1021" /><polygon
         points="375.54,155.6 380.33,147.31 385.12,155.6 "
         style="fill:#c19039;stroke:none;stroke-width:0.958939"
         id="polygon1023" /><circle
         cx="396.53"
         cy="105.67"
         r="3.5599999"
         style="fill:#0c335e;stroke:none;stroke-width:0.958939"
         id="circle1025" /><polygon
         points="389.36,164.92 394.15,156.63 398.93,164.92 "
         style="fill:#c19039;stroke:none;stroke-width:0.958939"
         id="polygon1027" /><polygon
         points="375.91,156.34 380.7,148.05 385.49,156.34 "
         style="fill:#c19039;stroke:none;stroke-width:0.958939"
         id="polygon1029" /><polygon
         points="370.96,154.14 375.75,145.85 380.54,154.14 "
         style="fill:#c19039;stroke:none;stroke-width:0.958939"
         id="polygon1031" /><polygon
         points="387.61,149.18 392.4,140.89 397.19,149.18 "
         style="fill:#c19039;stroke:none;stroke-width:0.958939"
         id="polygon1033" /><polygon
         points="357.52,109.13 362.31,100.84 367.1,109.13 "
         style="fill:#c19039;stroke:none;stroke-width:0.958939"
         id="polygon1035" /></g><g
       clip-path="url(#cpMC4wMHw1NzYuMDB8MC4wMHw0MzIuMDA=)"
       id="g1093"
       style="stroke-width:1.35062"><text
         x="334.04999"
         y="145.97"
         text-anchor="end"
         style="font-size:8.8px;font-family:Arial;fill:#4d4d4d;stroke-width:1.82417"
         textLength="12.72"
         lengthAdjust="spacingAndGlyphs"
         id="text1039">-10</text><text
         x="334.04999"
         y="111.84"
         text-anchor="end"
         style="font-size:8.8px;font-family:Arial;fill:#4d4d4d;stroke-width:1.82417"
         textLength="4.9000001"
         lengthAdjust="spacingAndGlyphs"
         id="text1041">0</text><text
         x="334.04999"
         y="77.709999"
         text-anchor="end"
         style="font-size:8.8px;font-family:Arial;fill:#4d4d4d;stroke-width:1.82417"
         textLength="9.79"
         lengthAdjust="spacingAndGlyphs"
         id="text1043">10</text><text
         x="334.04999"
         y="43.580002"
         text-anchor="end"
         style="font-size:8.8px;font-family:Arial;fill:#4d4d4d;stroke-width:1.82417"
         textLength="9.79"
         lengthAdjust="spacingAndGlyphs"
         id="text1045">20</text><polyline
         points="336.24,142.81 338.98,142.81 "
         style="stroke:#333333;stroke-width:1.44516;stroke-linecap:butt"
         id="polyline1047" /><polyline
         points="336.24,108.68 338.98,108.68 "
         style="stroke:#333333;stroke-width:1.44516;stroke-linecap:butt"
         id="polyline1049" /><polyline
         points="336.24,74.56 338.98,74.56 "
         style="stroke:#333333;stroke-width:1.44516;stroke-linecap:butt"
         id="polyline1051" /><polyline
         points="336.24,40.43 338.98,40.43 "
         style="stroke:#333333;stroke-width:1.44516;stroke-linecap:butt"
         id="polyline1053" /><polyline
         points="360.63,179.10 360.63,176.37 "
         style="stroke:#333333;stroke-width:1.44516;stroke-linecap:butt"
         id="polyline1055" /><polyline
         points="396.76,179.10 396.76,176.37 "
         style="stroke:#333333;stroke-width:1.44516;stroke-linecap:butt"
         id="polyline1057" /><polyline
         points="432.89,179.10 432.89,176.37 "
         style="stroke:#333333;stroke-width:1.44516;stroke-linecap:butt"
         id="polyline1059" /><polyline
         points="469.02,179.10 469.02,176.37 "
         style="stroke:#333333;stroke-width:1.44516;stroke-linecap:butt"
         id="polyline1061" /><text
         x="360.63"
         y="187.60001"
         text-anchor="middle"
         style="font-size:8.8px;font-family:Arial;fill:#4d4d4d;stroke-width:1.82417"
         textLength="12.72"
         lengthAdjust="spacingAndGlyphs"
         id="text1063">-25</text><text
         x="396.76001"
         y="187.60001"
         text-anchor="middle"
         style="font-size:8.8px;font-family:Arial;fill:#4d4d4d;stroke-width:1.82417"
         textLength="4.9000001"
         lengthAdjust="spacingAndGlyphs"
         id="text1065">0</text><text
         x="432.89001"
         y="187.60001"
         text-anchor="middle"
         style="font-size:8.8px;font-family:Arial;fill:#4d4d4d;stroke-width:1.82417"
         textLength="9.79"
         lengthAdjust="spacingAndGlyphs"
         id="text1067">25</text><text
         x="469.01999"
         y="187.60001"
         text-anchor="middle"
         style="font-size:8.8px;font-family:Arial;fill:#4d4d4d;stroke-width:1.82417"
         textLength="9.79"
         lengthAdjust="spacingAndGlyphs"
         id="text1069">50</text><text
         x="420.56"
         y="200.37"
         text-anchor="middle"
         style="font-size:11px;font-family:Arial;stroke-width:1.82417"
         textLength="94.160004"
         lengthAdjust="spacingAndGlyphs"
         id="text1071">PC1: 39% variance</text><text
         transform="rotate(-90,198.08,-103.29)"
         text-anchor="middle"
         style="font-size:11px;font-family:Arial;stroke-width:1.82417"
         textLength="88.040001"
         lengthAdjust="spacingAndGlyphs"
         id="text1073">PC2: 7% variance</text><rect
         x="513.09998"
         y="64.129997"
         width="57.419998"
         height="61.32"
         style="fill:#ffffff;stroke:none;stroke-width:1.44516"
         id="rect1075" /><text
         x="518.58002"
         y="78.709999"
         style="font-size:11px;font-family:Arial;stroke-width:1.35062"
         textLength="46.470001"
         lengthAdjust="spacingAndGlyphs"
         id="text1077">treatment</text><rect
         x="518.58002"
         y="85.410004"
         width="17.280001"
         height="17.280001"
         style="fill:#ebebeb;stroke:none;stroke-width:1.44516"
         id="rect1079" /><circle
         cx="527.21997"
         cy="94.050003"
         r="3.5599999"
         style="fill:#0c335e;stroke:none;stroke-width:0.958939"
         id="circle1081" /><rect
         x="518.58002"
         y="102.69"
         width="17.280001"
         height="17.280001"
         style="fill:#ebebeb;stroke:none;stroke-width:1.44516"
         id="rect1083" /><polygon
         points="522.43,114.09 527.22,105.8 532.01,114.09 "
         style="fill:#c19039;stroke:none;stroke-width:0.958939"
         id="polygon1085" /><text
         x="541.34003"
         y="97.199997"
         style="font-size:8.8px;font-family:Arial;stroke-width:1.35062"
         textLength="5.8699999"
         lengthAdjust="spacingAndGlyphs"
         id="text1087">A</text><text
         x="541.34003"
         y="114.48"
         style="font-size:8.8px;font-family:Arial;stroke-width:1.35062"
         textLength="5.8699999"
         lengthAdjust="spacingAndGlyphs"
         id="text1089">B</text><text
         x="293.04999"
         y="15.12"
         style="font-weight:bold;font-size:14px;font-family:Arial;stroke-width:1.35062"
         textLength="10.11"
         lengthAdjust="spacingAndGlyphs"
         id="text1091">B</text></g><g
       clip-path="url(#cpMC4wMHwyODguMDB8MjE2LjAwfDQzMi4wMA==)"
       id="g1102"
       style="stroke-width:1.35062"><rect
         x="0"
         y="216"
         width="288"
         height="216"
         style="fill:#ffffff;stroke:#ffffff;stroke-width:1.44516"
         id="rect1100" /></g><g
       clip-path="url(#cpMC4wMHw1NzYuMDB8MC4wMHw0MzIuMDA=)"
       id="g1104"
       style="stroke-width:1.35062" /><g
       clip-path="url(#cpNTAuOTh8MjE0LjE0fDIyMS40OHw0MDAuMTA=)"
       id="g1149"
       style="stroke-width:1.35062"><rect
         x="50.98"
         y="221.48"
         width="163.14999"
         height="178.62"
         style="fill:#ffffff;stroke:none;stroke-width:1.44516"
         id="rect1111" /><polyline
         points="50.98,362.98 214.14,362.98 "
         style="stroke:#ebebeb;stroke-width:0.715828;stroke-linecap:butt"
         id="polyline1113" /><polyline
         points="50.98,304.99 214.14,304.99 "
         style="stroke:#ebebeb;stroke-width:0.715828;stroke-linecap:butt"
         id="polyline1115" /><polyline
         points="50.98,247.00 214.14,247.00 "
         style="stroke:#ebebeb;stroke-width:0.715828;stroke-linecap:butt"
         id="polyline1117" /><polyline
         points="83.12,400.10 83.12,221.48 "
         style="stroke:#ebebeb;stroke-width:0.715828;stroke-linecap:butt"
         id="polyline1119" /><polyline
         points="124.32,400.10 124.32,221.48 "
         style="stroke:#ebebeb;stroke-width:0.715828;stroke-linecap:butt"
         id="polyline1121" /><polyline
         points="165.52,400.10 165.52,221.48 "
         style="stroke:#ebebeb;stroke-width:0.715828;stroke-linecap:butt"
         id="polyline1123" /><polyline
         points="206.72,400.10 206.72,221.48 "
         style="stroke:#ebebeb;stroke-width:0.715828;stroke-linecap:butt"
         id="polyline1125" /><polyline
         points="50.98,391.98 214.14,391.98 "
         style="stroke:#ebebeb;stroke-width:1.44516;stroke-linecap:butt"
         id="polyline1127" /><polyline
         points="50.98,333.98 214.14,333.98 "
         style="stroke:#ebebeb;stroke-width:1.44516;stroke-linecap:butt"
         id="polyline1129" /><polyline
         points="50.98,275.99 214.14,275.99 "
         style="stroke:#ebebeb;stroke-width:1.44516;stroke-linecap:butt"
         id="polyline1131" /><polyline
         points="62.52,400.10 62.52,221.48 "
         style="stroke:#ebebeb;stroke-width:1.44516;stroke-linecap:butt"
         id="polyline1133" /><polyline
         points="103.72,400.10 103.72,221.48 "
         style="stroke:#ebebeb;stroke-width:1.44516;stroke-linecap:butt"
         id="polyline1135" /><polyline
         points="144.92,400.10 144.92,221.48 "
         style="stroke:#ebebeb;stroke-width:1.44516;stroke-linecap:butt"
         id="polyline1137" /><polyline
         points="186.12,400.10 186.12,221.48 "
         style="stroke:#ebebeb;stroke-width:1.44516;stroke-linecap:butt"
         id="polyline1139" /><polygon
         points="59.85,391.98 60.14,391.98 60.43,391.98 60.72,391.97 61.01,391.9 61.3,390.93 61.59,383.45 61.88,352.98 62.17,291.75 62.46,244.05 62.75,259.74 63.04,310.63 63.33,344.96 63.62,355.42 63.91,358.68 64.21,364.64 64.5,372.39 64.79,378.29 65.08,381.98 65.37,384.97 65.66,386.8 65.95,386.13 66.24,383.91 66.53,382.68 66.82,383.83 67.11,386.48 67.4,388.59 67.69,389.17 67.98,388.83 68.27,387.94 68.56,386.49 68.85,385.43 69.14,385.57 69.43,386.52 69.72,387.92 70.01,389.04 70.3,388.48 70.59,386.39 70.88,385.27 71.17,386.83 71.46,389.52 71.75,391.26 72.04,391.85 72.33,391.96 72.62,391.98 72.91,391.98 73.2,391.98 73.49,391.98 73.78,391.98 74.07,391.98 74.36,391.98 74.65,391.98 74.94,391.98 75.24,391.98 75.53,391.98 75.82,391.98 76.11,391.98 76.4,391.98 76.69,391.98 76.98,391.98 77.27,391.98 77.56,391.98 77.85,391.98 78.14,391.97 78.43,391.9 78.72,391.59 79.01,390.84 79.3,389.99 79.59,389.8 79.88,390.45 80.17,391.28 80.46,391.78 80.75,391.94 81.04,391.97 81.33,391.98 81.62,391.98 81.91,391.98 82.2,391.98 82.49,391.98 82.78,391.98 83.07,391.98 83.36,391.98 83.65,391.98 83.94,391.98 84.23,391.98 84.52,391.98 84.81,391.98 85.1,391.98 85.39,391.98 85.68,391.98 85.97,391.98 86.26,391.98 86.56,391.98 86.85,391.98 87.14,391.98 87.43,391.98 87.72,391.98 88.01,391.98 88.3,391.98 88.59,391.98 88.88,391.98 89.17,391.98 89.46,391.98 89.75,391.98 90.04,391.98 90.33,391.98 90.62,391.98 90.91,391.98 91.2,391.98 91.49,391.98 91.78,391.98 92.07,391.98 92.36,391.98 92.65,391.98 92.94,391.98 93.23,391.98 93.52,391.98 93.81,391.98 94.1,391.98 94.39,391.98 94.68,391.98 94.97,391.98 95.26,391.98 95.55,391.98 95.84,391.98 96.13,391.98 96.42,391.98 96.71,391.98 97,391.98 97.29,391.98 97.59,391.98 97.88,391.98 98.17,391.98 98.46,391.98 98.75,391.98 99.04,391.98 99.33,391.98 99.62,391.98 99.91,391.98 100.2,391.98 100.49,391.98 100.78,391.98 101.07,391.98 101.36,391.98 101.65,391.98 101.94,391.98 102.23,391.98 102.52,391.98 102.81,391.98 103.1,391.98 103.39,391.98 103.68,391.98 103.97,391.98 104.26,391.98 104.55,391.98 104.84,391.98 105.13,391.98 105.42,391.98 105.71,391.98 106,391.98 106.29,391.98 106.58,391.98 106.87,391.98 107.16,391.98 107.45,391.98 107.74,391.98 108.03,391.98 108.32,391.98 108.61,391.98 108.91,391.98 109.2,391.98 109.49,391.98 109.78,391.98 110.07,391.98 110.36,391.98 110.65,391.98 110.94,391.98 111.23,391.98 111.52,391.98 111.81,391.98 112.1,391.98 112.39,391.98 112.68,391.98 112.97,391.98 113.26,391.98 113.55,391.98 113.84,391.98 114.13,391.98 114.42,391.98 114.71,391.98 115,391.98 115.29,391.98 115.58,391.98 115.87,391.98 116.16,391.98 116.45,391.98 116.74,391.98 117.03,391.98 117.32,391.98 117.61,391.98 117.9,391.98 118.19,391.98 118.48,391.98 118.77,391.98 119.06,391.98 119.35,391.98 119.64,391.98 119.94,391.98 120.23,391.98 120.52,391.98 120.81,391.98 121.1,391.98 121.39,391.98 121.68,391.98 121.97,391.98 122.26,391.98 122.55,391.98 122.84,391.98 123.13,391.98 123.42,391.98 123.71,391.98 124,391.98 124.29,391.98 124.58,391.98 124.87,391.98 125.16,391.98 125.45,391.98 125.74,391.98 126.03,391.98 126.32,391.98 126.61,391.98 126.9,391.98 127.19,391.98 127.48,391.98 127.77,391.98 128.06,391.98 128.35,391.98 128.64,391.98 128.93,391.98 129.22,391.98 129.51,391.98 129.8,391.98 130.09,391.98 130.38,391.98 130.67,391.98 130.96,391.98 131.26,391.98 131.55,391.98 131.84,391.98 132.13,391.98 132.42,391.98 132.71,391.98 133,391.98 133.29,391.98 133.58,391.98 133.87,391.98 134.16,391.98 134.45,391.98 134.74,391.98 135.03,391.98 135.32,391.98 135.61,391.98 135.9,391.98 136.19,391.98 136.48,391.98 136.77,391.98 137.06,391.98 137.35,391.98 137.64,391.98 137.93,391.98 138.22,391.98 138.51,391.98 138.8,391.98 139.09,391.98 139.38,391.98 139.67,391.98 139.96,391.98 140.25,391.98 140.54,391.98 140.83,391.98 141.12,391.98 141.41,391.98 141.7,391.98 141.99,391.98 142.29,391.98 142.58,391.98 142.87,391.98 143.16,391.98 143.45,391.98 143.74,391.98 144.03,391.98 144.32,391.98 144.61,391.98 144.9,391.98 145.19,391.98 145.48,391.98 145.77,391.98 146.06,391.98 146.35,391.98 146.64,391.98 146.93,391.98 147.22,391.98 147.51,391.98 147.8,391.98 148.09,391.98 148.38,391.98 148.67,391.98 148.96,391.98 149.25,391.98 149.54,391.98 149.83,391.98 150.12,391.98 150.41,391.98 150.7,391.98 150.99,391.98 151.28,391.98 151.57,391.98 151.86,391.98 152.15,391.98 152.44,391.98 152.73,391.98 153.02,391.98 153.31,391.98 153.61,391.98 153.9,391.98 154.19,391.98 154.48,391.98 154.77,391.98 155.06,391.98 155.35,391.98 155.64,391.98 155.93,391.98 156.22,391.98 156.51,391.98 156.8,391.98 157.09,391.98 157.38,391.98 157.67,391.98 157.96,391.98 158.25,391.98 158.54,391.98 158.83,391.98 159.12,391.98 159.41,391.98 159.7,391.98 159.99,391.98 160.28,391.98 160.57,391.98 160.86,391.98 161.15,391.98 161.44,391.98 161.73,391.98 162.02,391.98 162.31,391.98 162.6,391.98 162.89,391.98 163.18,391.98 163.47,391.98 163.76,391.98 164.05,391.98 164.34,391.98 164.63,391.98 164.93,391.98 165.22,391.98 165.51,391.98 165.8,391.98 166.09,391.98 166.38,391.98 166.67,391.98 166.96,391.98 167.25,391.98 167.54,391.98 167.83,391.98 168.12,391.98 168.41,391.98 168.7,391.98 168.99,391.98 169.28,391.98 169.57,391.98 169.86,391.98 170.15,391.98 170.44,391.98 170.73,391.98 171.02,391.98 171.31,391.98 171.6,391.98 171.89,391.98 172.18,391.98 172.47,391.98 172.76,391.98 173.05,391.98 173.34,391.98 173.63,391.98 173.92,391.98 174.21,391.98 174.5,391.98 174.79,391.98 175.08,391.98 175.37,391.98 175.66,391.98 175.96,391.98 176.25,391.98 176.54,391.98 176.83,391.98 177.12,391.98 177.41,391.98 177.7,391.98 177.99,391.98 178.28,391.98 178.57,391.98 178.86,391.98 179.15,391.98 179.44,391.98 179.73,391.98 180.02,391.98 180.31,391.98 180.6,391.98 180.89,391.98 181.18,391.98 181.47,391.98 181.76,391.98 182.05,391.98 182.34,391.98 182.63,391.98 182.92,391.98 183.21,391.98 183.5,391.98 183.79,391.98 184.08,391.98 184.37,391.98 184.66,391.98 184.95,391.98 185.24,391.98 185.53,391.98 185.82,391.98 186.11,391.98 186.4,391.98 186.69,391.98 186.98,391.98 187.28,391.98 187.57,391.98 187.86,391.98 188.15,391.98 188.44,391.98 188.73,391.98 189.02,391.98 189.31,391.98 189.6,391.98 189.89,391.98 190.18,391.98 190.47,391.98 190.76,391.98 191.05,391.98 191.34,391.98 191.63,391.98 191.92,391.98 192.21,391.98 192.5,391.98 192.79,391.98 193.08,391.98 193.37,391.98 193.66,391.98 193.95,391.98 194.24,391.98 194.53,391.98 194.82,391.98 195.11,391.98 195.4,391.98 195.69,391.98 195.98,391.98 196.27,391.98 196.56,391.98 196.85,391.98 197.14,391.98 197.43,391.98 197.72,391.98 198.01,391.98 198.31,391.98 198.6,391.98 198.89,391.98 199.18,391.98 199.47,391.98 199.76,391.98 200.05,391.98 200.34,391.98 200.63,391.98 200.92,391.98 201.21,391.98 201.5,391.98 201.79,391.98 202.08,391.98 202.37,391.98 202.66,391.98 202.95,391.98 203.24,391.98 203.53,391.98 203.82,391.98 204.11,391.98 204.4,391.98 204.69,391.98 204.98,391.98 205.27,391.98 205.56,391.98 205.85,391.98 206.14,391.98 206.43,391.98 206.72,391.98 206.72,391.98 206.43,391.98 206.14,391.98 205.85,391.98 205.56,391.98 205.27,391.98 204.98,391.98 204.69,391.98 204.4,391.98 204.11,391.98 203.82,391.98 203.53,391.98 203.24,391.98 202.95,391.98 202.66,391.98 202.37,391.98 202.08,391.98 201.79,391.98 201.5,391.98 201.21,391.98 200.92,391.98 200.63,391.98 200.34,391.98 200.05,391.98 199.76,391.98 199.47,391.98 199.18,391.98 198.89,391.98 198.6,391.98 198.31,391.98 198.01,391.98 197.72,391.98 197.43,391.98 197.14,391.98 196.85,391.98 196.56,391.98 196.27,391.98 195.98,391.98 195.69,391.98 195.4,391.98 195.11,391.98 194.82,391.98 194.53,391.98 194.24,391.98 193.95,391.98 193.66,391.98 193.37,391.98 193.08,391.98 192.79,391.98 192.5,391.98 192.21,391.98 191.92,391.98 191.63,391.98 191.34,391.98 191.05,391.98 190.76,391.98 190.47,391.98 190.18,391.98 189.89,391.98 189.6,391.98 189.31,391.98 189.02,391.98 188.73,391.98 188.44,391.98 188.15,391.98 187.86,391.98 187.57,391.98 187.28,391.98 186.98,391.98 186.69,391.98 186.4,391.98 186.11,391.98 185.82,391.98 185.53,391.98 185.24,391.98 184.95,391.98 184.66,391.98 184.37,391.98 184.08,391.98 183.79,391.98 183.5,391.98 183.21,391.98 182.92,391.98 182.63,391.98 182.34,391.98 182.05,391.98 181.76,391.98 181.47,391.98 181.18,391.98 180.89,391.98 180.6,391.98 180.31,391.98 180.02,391.98 179.73,391.98 179.44,391.98 179.15,391.98 178.86,391.98 178.57,391.98 178.28,391.98 177.99,391.98 177.7,391.98 177.41,391.98 177.12,391.98 176.83,391.98 176.54,391.98 176.25,391.98 175.96,391.98 175.66,391.98 175.37,391.98 175.08,391.98 174.79,391.98 174.5,391.98 174.21,391.98 173.92,391.98 173.63,391.98 173.34,391.98 173.05,391.98 172.76,391.98 172.47,391.98 172.18,391.98 171.89,391.98 171.6,391.98 171.31,391.98 171.02,391.98 170.73,391.98 170.44,391.98 170.15,391.98 169.86,391.98 169.57,391.98 169.28,391.98 168.99,391.98 168.7,391.98 168.41,391.98 168.12,391.98 167.83,391.98 167.54,391.98 167.25,391.98 166.96,391.98 166.67,391.98 166.38,391.98 166.09,391.98 165.8,391.98 165.51,391.98 165.22,391.98 164.93,391.98 164.63,391.98 164.34,391.98 164.05,391.98 163.76,391.98 163.47,391.98 163.18,391.98 162.89,391.98 162.6,391.98 162.31,391.98 162.02,391.98 161.73,391.98 161.44,391.98 161.15,391.98 160.86,391.98 160.57,391.98 160.28,391.98 159.99,391.98 159.7,391.98 159.41,391.98 159.12,391.98 158.83,391.98 158.54,391.98 158.25,391.98 157.96,391.98 157.67,391.98 157.38,391.98 157.09,391.98 156.8,391.98 156.51,391.98 156.22,391.98 155.93,391.98 155.64,391.98 155.35,391.98 155.06,391.98 154.77,391.98 154.48,391.98 154.19,391.98 153.9,391.98 153.61,391.98 153.31,391.98 153.02,391.98 152.73,391.98 152.44,391.98 152.15,391.98 151.86,391.98 151.57,391.98 151.28,391.98 150.99,391.98 150.7,391.98 150.41,391.98 150.12,391.98 149.83,391.98 149.54,391.98 149.25,391.98 148.96,391.98 148.67,391.98 148.38,391.98 148.09,391.98 147.8,391.98 147.51,391.98 147.22,391.98 146.93,391.98 146.64,391.98 146.35,391.98 146.06,391.98 145.77,391.98 145.48,391.98 145.19,391.98 144.9,391.98 144.61,391.98 144.32,391.98 144.03,391.98 143.74,391.98 143.45,391.98 143.16,391.98 142.87,391.98 142.58,391.98 142.29,391.98 141.99,391.98 141.7,391.98 141.41,391.98 141.12,391.98 140.83,391.98 140.54,391.98 140.25,391.98 139.96,391.98 139.67,391.98 139.38,391.98 139.09,391.98 138.8,391.98 138.51,391.98 138.22,391.98 137.93,391.98 137.64,391.98 137.35,391.98 137.06,391.98 136.77,391.98 136.48,391.98 136.19,391.98 135.9,391.98 135.61,391.98 135.32,391.98 135.03,391.98 134.74,391.98 134.45,391.98 134.16,391.98 133.87,391.98 133.58,391.98 133.29,391.98 133,391.98 132.71,391.98 132.42,391.98 132.13,391.98 131.84,391.98 131.55,391.98 131.26,391.98 130.96,391.98 130.67,391.98 130.38,391.98 130.09,391.98 129.8,391.98 129.51,391.98 129.22,391.98 128.93,391.98 128.64,391.98 128.35,391.98 128.06,391.98 127.77,391.98 127.48,391.98 127.19,391.98 126.9,391.98 126.61,391.98 126.32,391.98 126.03,391.98 125.74,391.98 125.45,391.98 125.16,391.98 124.87,391.98 124.58,391.98 124.29,391.98 124,391.98 123.71,391.98 123.42,391.98 123.13,391.98 122.84,391.98 122.55,391.98 122.26,391.98 121.97,391.98 121.68,391.98 121.39,391.98 121.1,391.98 120.81,391.98 120.52,391.98 120.23,391.98 119.94,391.98 119.64,391.98 119.35,391.98 119.06,391.98 118.77,391.98 118.48,391.98 118.19,391.98 117.9,391.98 117.61,391.98 117.32,391.98 117.03,391.98 116.74,391.98 116.45,391.98 116.16,391.98 115.87,391.98 115.58,391.98 115.29,391.98 115,391.98 114.71,391.98 114.42,391.98 114.13,391.98 113.84,391.98 113.55,391.98 113.26,391.98 112.97,391.98 112.68,391.98 112.39,391.98 112.1,391.98 111.81,391.98 111.52,391.98 111.23,391.98 110.94,391.98 110.65,391.98 110.36,391.98 110.07,391.98 109.78,391.98 109.49,391.98 109.2,391.98 108.91,391.98 108.61,391.98 108.32,391.98 108.03,391.98 107.74,391.98 107.45,391.98 107.16,391.98 106.87,391.98 106.58,391.98 106.29,391.98 106,391.98 105.71,391.98 105.42,391.98 105.13,391.98 104.84,391.98 104.55,391.98 104.26,391.98 103.97,391.98 103.68,391.98 103.39,391.98 103.1,391.98 102.81,391.98 102.52,391.98 102.23,391.98 101.94,391.98 101.65,391.98 101.36,391.98 101.07,391.98 100.78,391.98 100.49,391.98 100.2,391.98 99.91,391.98 99.62,391.98 99.33,391.98 99.04,391.98 98.75,391.98 98.46,391.98 98.17,391.98 97.88,391.98 97.59,391.98 97.29,391.98 97,391.98 96.71,391.98 96.42,391.98 96.13,391.98 95.84,391.98 95.55,391.98 95.26,391.98 94.97,391.98 94.68,391.98 94.39,391.98 94.1,391.98 93.81,391.98 93.52,391.98 93.23,391.98 92.94,391.98 92.65,391.98 92.36,391.98 92.07,391.98 91.78,391.98 91.49,391.98 91.2,391.98 90.91,391.98 90.62,391.98 90.33,391.98 90.04,391.98 89.75,391.98 89.46,391.98 89.17,391.98 88.88,391.98 88.59,391.98 88.3,391.98 88.01,391.98 87.72,391.98 87.43,391.98 87.14,391.98 86.85,391.98 86.56,391.98 86.26,391.98 85.97,391.98 85.68,391.98 85.39,391.98 85.1,391.98 84.81,391.98 84.52,391.98 84.23,391.98 83.94,391.98 83.65,391.98 83.36,391.98 83.07,391.98 82.78,391.98 82.49,391.98 82.2,391.98 81.91,391.98 81.62,391.98 81.33,391.98 81.04,391.98 80.75,391.98 80.46,391.98 80.17,391.98 79.88,391.98 79.59,391.98 79.3,391.98 79.01,391.98 78.72,391.98 78.43,391.98 78.14,391.98 77.85,391.98 77.56,391.98 77.27,391.98 76.98,391.98 76.69,391.98 76.4,391.98 76.11,391.98 75.82,391.98 75.53,391.98 75.24,391.98 74.94,391.98 74.65,391.98 74.36,391.98 74.07,391.98 73.78,391.98 73.49,391.98 73.2,391.98 72.91,391.98 72.62,391.98 72.33,391.98 72.04,391.98 71.75,391.98 71.46,391.98 71.17,391.98 70.88,391.98 70.59,391.98 70.3,391.98 70.01,391.98 69.72,391.98 69.43,391.98 69.14,391.98 68.85,391.98 68.56,391.98 68.27,391.98 67.98,391.98 67.69,391.98 67.4,391.98 67.11,391.98 66.82,391.98 66.53,391.98 66.24,391.98 65.95,391.98 65.66,391.98 65.37,391.98 65.08,391.98 64.79,391.98 64.5,391.98 64.21,391.98 63.91,391.98 63.62,391.98 63.33,391.98 63.04,391.98 62.75,391.98 62.46,391.98 62.17,391.98 61.88,391.98 61.59,391.98 61.3,391.98 61.01,391.98 60.72,391.98 60.43,391.98 60.14,391.98 59.85,391.98 59.56,391.98 59.27,391.98 58.98,391.98 58.69,391.98 58.4,391.98 58.69,391.98 58.98,391.98 59.27,391.98 59.56,391.98 "
         style="stroke:none;stroke-width:0;stroke-linecap:butt"
         id="polygon1141" /><polyline
         points="58.40,391.98 58.69,391.98 58.98,391.98 59.27,391.98 59.56,391.98 59.85,391.98 60.14,391.98 60.43,391.98 60.72,391.97 61.01,391.90 61.30,390.93 61.59,383.45 61.88,352.98 62.17,291.75 62.46,244.05 62.75,259.74 63.04,310.63 63.33,344.96 63.62,355.42 63.91,358.68 64.21,364.64 64.50,372.39 64.79,378.29 65.08,381.98 65.37,384.97 65.66,386.80 65.95,386.13 66.24,383.91 66.53,382.68 66.82,383.83 67.11,386.48 67.40,388.59 67.69,389.17 67.98,388.83 68.27,387.94 68.56,386.49 68.85,385.43 69.14,385.57 69.43,386.52 69.72,387.92 70.01,389.04 70.30,388.48 70.59,386.39 70.88,385.27 71.17,386.83 71.46,389.52 71.75,391.26 72.04,391.85 72.33,391.96 72.62,391.98 72.91,391.98 73.20,391.98 73.49,391.98 73.78,391.98 74.07,391.98 74.36,391.98 74.65,391.98 74.94,391.98 75.24,391.98 75.53,391.98 75.82,391.98 76.11,391.98 76.40,391.98 76.69,391.98 76.98,391.98 77.27,391.98 77.56,391.98 77.85,391.98 78.14,391.97 78.43,391.90 78.72,391.59 79.01,390.84 79.30,389.99 79.59,389.80 79.88,390.45 80.17,391.28 80.46,391.78 80.75,391.94 81.04,391.97 81.33,391.98 81.62,391.98 81.91,391.98 82.20,391.98 82.49,391.98 82.78,391.98 83.07,391.98 83.36,391.98 83.65,391.98 83.94,391.98 84.23,391.98 84.52,391.98 84.81,391.98 85.10,391.98 85.39,391.98 85.68,391.98 85.97,391.98 86.26,391.98 86.56,391.98 86.85,391.98 87.14,391.98 87.43,391.98 87.72,391.98 88.01,391.98 88.30,391.98 88.59,391.98 88.88,391.98 89.17,391.98 89.46,391.98 89.75,391.98 90.04,391.98 90.33,391.98 90.62,391.98 90.91,391.98 91.20,391.98 91.49,391.98 91.78,391.98 92.07,391.98 92.36,391.98 92.65,391.98 92.94,391.98 93.23,391.98 93.52,391.98 93.81,391.98 94.10,391.98 94.39,391.98 94.68,391.98 94.97,391.98 95.26,391.98 95.55,391.98 95.84,391.98 96.13,391.98 96.42,391.98 96.71,391.98 97.00,391.98 97.29,391.98 97.59,391.98 97.88,391.98 98.17,391.98 98.46,391.98 98.75,391.98 99.04,391.98 99.33,391.98 99.62,391.98 99.91,391.98 100.20,391.98 100.49,391.98 100.78,391.98 101.07,391.98 101.36,391.98 101.65,391.98 101.94,391.98 102.23,391.98 102.52,391.98 102.81,391.98 103.10,391.98 103.39,391.98 103.68,391.98 103.97,391.98 104.26,391.98 104.55,391.98 104.84,391.98 105.13,391.98 105.42,391.98 105.71,391.98 106.00,391.98 106.29,391.98 106.58,391.98 106.87,391.98 107.16,391.98 107.45,391.98 107.74,391.98 108.03,391.98 108.32,391.98 108.61,391.98 108.91,391.98 109.20,391.98 109.49,391.98 109.78,391.98 110.07,391.98 110.36,391.98 110.65,391.98 110.94,391.98 111.23,391.98 111.52,391.98 111.81,391.98 112.10,391.98 112.39,391.98 112.68,391.98 112.97,391.98 113.26,391.98 113.55,391.98 113.84,391.98 114.13,391.98 114.42,391.98 114.71,391.98 115.00,391.98 115.29,391.98 115.58,391.98 115.87,391.98 116.16,391.98 116.45,391.98 116.74,391.98 117.03,391.98 117.32,391.98 117.61,391.98 117.90,391.98 118.19,391.98 118.48,391.98 118.77,391.98 119.06,391.98 119.35,391.98 119.64,391.98 119.94,391.98 120.23,391.98 120.52,391.98 120.81,391.98 121.10,391.98 121.39,391.98 121.68,391.98 121.97,391.98 122.26,391.98 122.55,391.98 122.84,391.98 123.13,391.98 123.42,391.98 123.71,391.98 124.00,391.98 124.29,391.98 124.58,391.98 124.87,391.98 125.16,391.98 125.45,391.98 125.74,391.98 126.03,391.98 126.32,391.98 126.61,391.98 126.90,391.98 127.19,391.98 127.48,391.98 127.77,391.98 128.06,391.98 128.35,391.98 128.64,391.98 128.93,391.98 129.22,391.98 129.51,391.98 129.80,391.98 130.09,391.98 130.38,391.98 130.67,391.98 130.96,391.98 131.26,391.98 131.55,391.98 131.84,391.98 132.13,391.98 132.42,391.98 132.71,391.98 133.00,391.98 133.29,391.98 133.58,391.98 133.87,391.98 134.16,391.98 134.45,391.98 134.74,391.98 135.03,391.98 135.32,391.98 135.61,391.98 135.90,391.98 136.19,391.98 136.48,391.98 136.77,391.98 137.06,391.98 137.35,391.98 137.64,391.98 137.93,391.98 138.22,391.98 138.51,391.98 138.80,391.98 139.09,391.98 139.38,391.98 139.67,391.98 139.96,391.98 140.25,391.98 140.54,391.98 140.83,391.98 141.12,391.98 141.41,391.98 141.70,391.98 141.99,391.98 142.29,391.98 142.58,391.98 142.87,391.98 143.16,391.98 143.45,391.98 143.74,391.98 144.03,391.98 144.32,391.98 144.61,391.98 144.90,391.98 145.19,391.98 145.48,391.98 145.77,391.98 146.06,391.98 146.35,391.98 146.64,391.98 146.93,391.98 147.22,391.98 147.51,391.98 147.80,391.98 148.09,391.98 148.38,391.98 148.67,391.98 148.96,391.98 149.25,391.98 149.54,391.98 149.83,391.98 150.12,391.98 150.41,391.98 150.70,391.98 150.99,391.98 151.28,391.98 151.57,391.98 151.86,391.98 152.15,391.98 152.44,391.98 152.73,391.98 153.02,391.98 153.31,391.98 153.61,391.98 153.90,391.98 154.19,391.98 154.48,391.98 154.77,391.98 155.06,391.98 155.35,391.98 155.64,391.98 155.93,391.98 156.22,391.98 156.51,391.98 156.80,391.98 157.09,391.98 157.38,391.98 157.67,391.98 157.96,391.98 158.25,391.98 158.54,391.98 158.83,391.98 159.12,391.98 159.41,391.98 159.70,391.98 159.99,391.98 160.28,391.98 160.57,391.98 160.86,391.98 161.15,391.98 161.44,391.98 161.73,391.98 162.02,391.98 162.31,391.98 162.60,391.98 162.89,391.98 163.18,391.98 163.47,391.98 163.76,391.98 164.05,391.98 164.34,391.98 164.63,391.98 164.93,391.98 165.22,391.98 165.51,391.98 165.80,391.98 166.09,391.98 166.38,391.98 166.67,391.98 166.96,391.98 167.25,391.98 167.54,391.98 167.83,391.98 168.12,391.98 168.41,391.98 168.70,391.98 168.99,391.98 169.28,391.98 169.57,391.98 169.86,391.98 170.15,391.98 170.44,391.98 170.73,391.98 171.02,391.98 171.31,391.98 171.60,391.98 171.89,391.98 172.18,391.98 172.47,391.98 172.76,391.98 173.05,391.98 173.34,391.98 173.63,391.98 173.92,391.98 174.21,391.98 174.50,391.98 174.79,391.98 175.08,391.98 175.37,391.98 175.66,391.98 175.96,391.98 176.25,391.98 176.54,391.98 176.83,391.98 177.12,391.98 177.41,391.98 177.70,391.98 177.99,391.98 178.28,391.98 178.57,391.98 178.86,391.98 179.15,391.98 179.44,391.98 179.73,391.98 180.02,391.98 180.31,391.98 180.60,391.98 180.89,391.98 181.18,391.98 181.47,391.98 181.76,391.98 182.05,391.98 182.34,391.98 182.63,391.98 182.92,391.98 183.21,391.98 183.50,391.98 183.79,391.98 184.08,391.98 184.37,391.98 184.66,391.98 184.95,391.98 185.24,391.98 185.53,391.98 185.82,391.98 186.11,391.98 186.40,391.98 186.69,391.98 186.98,391.98 187.28,391.98 187.57,391.98 187.86,391.98 188.15,391.98 188.44,391.98 188.73,391.98 189.02,391.98 189.31,391.98 189.60,391.98 189.89,391.98 190.18,391.98 190.47,391.98 190.76,391.98 191.05,391.98 191.34,391.98 191.63,391.98 191.92,391.98 192.21,391.98 192.50,391.98 192.79,391.98 193.08,391.98 193.37,391.98 193.66,391.98 193.95,391.98 194.24,391.98 194.53,391.98 194.82,391.98 195.11,391.98 195.40,391.98 195.69,391.98 195.98,391.98 196.27,391.98 196.56,391.98 196.85,391.98 197.14,391.98 197.43,391.98 197.72,391.98 198.01,391.98 198.31,391.98 198.60,391.98 198.89,391.98 199.18,391.98 199.47,391.98 199.76,391.98 200.05,391.98 200.34,391.98 200.63,391.98 200.92,391.98 201.21,391.98 201.50,391.98 201.79,391.98 202.08,391.98 202.37,391.98 202.66,391.98 202.95,391.98 203.24,391.98 203.53,391.98 203.82,391.98 204.11,391.98 204.40,391.98 204.69,391.98 204.98,391.98 205.27,391.98 205.56,391.98 205.85,391.98 206.14,391.98 206.43,391.98 206.72,391.98 "
         style="stroke-width:1.44516;stroke-linecap:butt"
         id="polyline1143" /><line
         x1="62.959999"
         y1="391.98001"
         x2="62.959999"
         y2="229.60001"
         style="stroke:#ff0000;stroke-width:1.44516;stroke-linecap:butt"
         id="line1145" /><rect
         x="50.98"
         y="221.48"
         width="163.14999"
         height="178.62"
         style="stroke:#333333;stroke-width:1.44516"
         id="rect1147" /></g><g
       clip-path="url(#cpMC4wMHw1NzYuMDB8MC4wMHw0MzIuMDA=)"
       id="g1183"
       style="stroke-width:1.35062"><text
         x="46.049999"
         y="395.13"
         text-anchor="end"
         style="font-size:8.8px;font-family:Arial;fill:#4d4d4d;stroke-width:1.82417"
         textLength="12.23"
         lengthAdjust="spacingAndGlyphs"
         id="text1151">0.0</text><text
         x="46.049999"
         y="337.14001"
         text-anchor="end"
         style="font-size:8.8px;font-family:Arial;fill:#4d4d4d;stroke-width:1.82417"
         textLength="12.23"
         lengthAdjust="spacingAndGlyphs"
         id="text1153">0.1</text><text
         x="46.049999"
         y="279.14999"
         text-anchor="end"
         style="font-size:8.8px;font-family:Arial;fill:#4d4d4d;stroke-width:1.82417"
         textLength="12.23"
         lengthAdjust="spacingAndGlyphs"
         id="text1155">0.2</text><polyline
         points="48.24,391.98 50.98,391.98 "
         style="stroke:#333333;stroke-width:1.44516;stroke-linecap:butt"
         id="polyline1157" /><polyline
         points="48.24,333.98 50.98,333.98 "
         style="stroke:#333333;stroke-width:1.44516;stroke-linecap:butt"
         id="polyline1159" /><polyline
         points="48.24,275.99 50.98,275.99 "
         style="stroke:#333333;stroke-width:1.44516;stroke-linecap:butt"
         id="polyline1161" /><polyline
         points="62.52,402.84 62.52,400.10 "
         style="stroke:#333333;stroke-width:1.44516;stroke-linecap:butt"
         id="polyline1163" /><polyline
         points="103.72,402.84 103.72,400.10 "
         style="stroke:#333333;stroke-width:1.44516;stroke-linecap:butt"
         id="polyline1165" /><polyline
         points="144.92,402.84 144.92,400.10 "
         style="stroke:#333333;stroke-width:1.44516;stroke-linecap:butt"
         id="polyline1167" /><polyline
         points="186.12,402.84 186.12,400.10 "
         style="stroke:#333333;stroke-width:1.44516;stroke-linecap:butt"
         id="polyline1169" /><text
         x="62.52"
         y="411.32999"
         text-anchor="middle"
         style="font-size:8.8px;font-family:Arial;fill:#4d4d4d;stroke-width:1.82417"
         textLength="4.9000001"
         lengthAdjust="spacingAndGlyphs"
         id="text1171">0</text><text
         x="103.72"
         y="411.32999"
         text-anchor="middle"
         style="font-size:8.8px;font-family:Arial;fill:#4d4d4d;stroke-width:1.82417"
         textLength="14.69"
         lengthAdjust="spacingAndGlyphs"
         id="text1173">100</text><text
         x="144.92"
         y="411.32999"
         text-anchor="middle"
         style="font-size:8.8px;font-family:Arial;fill:#4d4d4d;stroke-width:1.82417"
         textLength="14.69"
         lengthAdjust="spacingAndGlyphs"
         id="text1175">200</text><text
         x="186.12"
         y="411.32999"
         text-anchor="middle"
         style="font-size:8.8px;font-family:Arial;fill:#4d4d4d;stroke-width:1.82417"
         textLength="14.69"
         lengthAdjust="spacingAndGlyphs"
         id="text1177">300</text><text
         x="132.56"
         y="424.10001"
         text-anchor="middle"
         style="font-size:11px;font-family:Arial;stroke-width:1.82417"
         textLength="20.780001"
         lengthAdjust="spacingAndGlyphs"
         id="text1179">fstat</text><text
         x="5.0500002"
         y="231.12"
         style="font-weight:bold;font-size:14px;font-family:Arial;stroke-width:1.35062"
         textLength="10.11"
         lengthAdjust="spacingAndGlyphs"
         id="text1181">C</text></g><g
       clip-path="url(#cpMjg4LjAwfDU3Ni4wMHwyMjMuNzN8NDI0LjI3)"
       id="g1192"
       style="stroke-width:1.35062"><rect
         x="288"
         y="223.73"
         width="288"
         height="200.53999"
         style="fill:#ffffff;stroke:#ffffff;stroke-width:1.44516"
         id="rect1190" /></g><g
       clip-path="url(#cpMC4wMHw1NzYuMDB8MC4wMHw0MzIuMDA=)"
       id="g1194"
       style="stroke-width:1.35062" /><g
       clip-path="url(#cpMzM4Ljk4fDUwMi4xNHwyMjkuMjF8MzkyLjM3)"
       id="g1289"
       style="stroke-width:1.35062"><rect
         x="338.98001"
         y="229.21001"
         width="163.14999"
         height="163.14999"
         style="fill:#ebebeb;stroke:none;stroke-width:1.44516"
         id="rect1201" /><polyline
         points="338.98,354.53 502.14,354.53 "
         style="stroke:#ffffff;stroke-width:0.715828;stroke-linecap:butt"
         id="polyline1203" /><polyline
         points="338.98,309.04 502.14,309.04 "
         style="stroke:#ffffff;stroke-width:0.715828;stroke-linecap:butt"
         id="polyline1205" /><polyline
         points="338.98,263.56 502.14,263.56 "
         style="stroke:#ffffff;stroke-width:0.715828;stroke-linecap:butt"
         id="polyline1207" /><polyline
         points="361.51,392.37 361.51,229.21 "
         style="stroke:#ffffff;stroke-width:0.715828;stroke-linecap:butt"
         id="polyline1209" /><polyline
         points="415.23,392.37 415.23,229.21 "
         style="stroke:#ffffff;stroke-width:0.715828;stroke-linecap:butt"
         id="polyline1211" /><polyline
         points="468.94,392.37 468.94,229.21 "
         style="stroke:#ffffff;stroke-width:0.715828;stroke-linecap:butt"
         id="polyline1213" /><polyline
         points="338.98,377.27 502.14,377.27 "
         style="stroke:#ffffff;stroke-width:1.44516;stroke-linecap:butt"
         id="polyline1215" /><polyline
         points="338.98,331.78 502.14,331.78 "
         style="stroke:#ffffff;stroke-width:1.44516;stroke-linecap:butt"
         id="polyline1217" /><polyline
         points="338.98,286.30 502.14,286.30 "
         style="stroke:#ffffff;stroke-width:1.44516;stroke-linecap:butt"
         id="polyline1219" /><polyline
         points="338.98,240.81 502.14,240.81 "
         style="stroke:#ffffff;stroke-width:1.44516;stroke-linecap:butt"
         id="polyline1221" /><polyline
         points="388.37,392.37 388.37,229.21 "
         style="stroke:#ffffff;stroke-width:1.44516;stroke-linecap:butt"
         id="polyline1223" /><polyline
         points="442.09,392.37 442.09,229.21 "
         style="stroke:#ffffff;stroke-width:1.44516;stroke-linecap:butt"
         id="polyline1225" /><polyline
         points="495.80,392.37 495.80,229.21 "
         style="stroke:#ffffff;stroke-width:1.44516;stroke-linecap:butt"
         id="polyline1227" /><polygon
         points="347.23,248.66 352.02,240.36 356.81,248.66 "
         style="fill:#c19039;stroke:none;stroke-width:0.958939"
         id="polygon1229" /><circle
         cx="448.72"
         cy="280.91"
         r="3.5599999"
         style="fill:#0c335e;stroke:none;stroke-width:0.958939"
         id="circle1231" /><circle
         cx="494.72"
         cy="252.78999"
         r="3.5599999"
         style="fill:#0c335e;stroke:none;stroke-width:0.958939"
         id="circle1233" /><polygon
         points="444.15,263.79 448.94,255.49 453.72,263.79 "
         style="fill:#c19039;stroke:none;stroke-width:0.958939"
         id="polygon1235" /><polygon
         points="446.63,297.8 451.42,289.5 456.21,297.8 "
         style="fill:#c19039;stroke:none;stroke-width:0.958939"
         id="polygon1237" /><polygon
         points="440.01,259.42 444.8,251.13 449.59,259.42 "
         style="fill:#c19039;stroke:none;stroke-width:0.958939"
         id="polygon1239" /><circle
         cx="440.31"
         cy="283.87"
         r="3.5599999"
         style="fill:#0c335e;stroke:none;stroke-width:0.958939"
         id="circle1241" /><polygon
         points="455.38,282.65 460.17,274.36 464.96,282.65 "
         style="fill:#c19039;stroke:none;stroke-width:0.958939"
         id="polygon1243" /><polygon
         points="455.28,282.4 460.07,274.1 464.86,282.4 "
         style="fill:#c19039;stroke:none;stroke-width:0.958939"
         id="polygon1245" /><circle
         cx="418.39999"
         cy="326.54001"
         r="3.5599999"
         style="fill:#0c335e;stroke:none;stroke-width:0.958939"
         id="circle1247" /><circle
         cx="411.53"
         cy="332.44"
         r="3.5599999"
         style="fill:#0c335e;stroke:none;stroke-width:0.958939"
         id="circle1249" /><polygon
         points="457.25,272.86 462.04,264.57 466.83,272.86 "
         style="fill:#c19039;stroke:none;stroke-width:0.958939"
         id="polygon1251" /><circle
         cx="420.07001"
         cy="369.16"
         r="3.5599999"
         style="fill:#0c335e;stroke:none;stroke-width:0.958939"
         id="circle1253" /><circle
         cx="438.92999"
         cy="273.89001"
         r="3.5599999"
         style="fill:#0c335e;stroke:none;stroke-width:0.958939"
         id="circle1255" /><polygon
         points="402.46,363.6 407.24,355.31 412.03,363.6 "
         style="fill:#c19039;stroke:none;stroke-width:0.958939"
         id="polygon1257" /><circle
         cx="423.12"
         cy="384.95001"
         r="3.5599999"
         style="fill:#0c335e;stroke:none;stroke-width:0.958939"
         id="circle1259" /><circle
         cx="346.39999"
         cy="261.38"
         r="3.5599999"
         style="fill:#0c335e;stroke:none;stroke-width:0.958939"
         id="circle1261" /><circle
         cx="437.35001"
         cy="315.42001"
         r="3.5599999"
         style="fill:#0c335e;stroke:none;stroke-width:0.958939"
         id="circle1263" /><circle
         cx="487.85001"
         cy="300.29999"
         r="3.5599999"
         style="fill:#0c335e;stroke:none;stroke-width:0.958939"
         id="circle1265" /><circle
         cx="491.04001"
         cy="278.51999"
         r="3.5599999"
         style="fill:#0c335e;stroke:none;stroke-width:0.958939"
         id="circle1267" /><circle
         cx="490.87"
         cy="273.23999"
         r="3.5599999"
         style="fill:#0c335e;stroke:none;stroke-width:0.958939"
         id="circle1269" /><polygon
         points="487.21,274.2 491.99,265.9 496.78,274.2 "
         style="fill:#c19039;stroke:none;stroke-width:0.958939"
         id="polygon1271" /><circle
         cx="492.85999"
         cy="267.57999"
         r="3.5599999"
         style="fill:#0c335e;stroke:none;stroke-width:0.958939"
         id="circle1273" /><polygon
         points="353.59,239.39 358.37,231.1 363.16,239.39 "
         style="fill:#c19039;stroke:none;stroke-width:0.958939"
         id="polygon1275" /><circle
         cx="358.53"
         cy="236.94"
         r="3.5599999"
         style="fill:#0c335e;stroke:none;stroke-width:0.958939"
         id="circle1277" /><polygon
         points="440.38,286.82 445.17,278.53 449.96,286.82 "
         style="fill:#c19039;stroke:none;stroke-width:0.958939"
         id="polygon1279" /><polygon
         points="486.49,280.6 491.28,272.31 496.07,280.6 "
         style="fill:#c19039;stroke:none;stroke-width:0.958939"
         id="polygon1281" /><polygon
         points="455.46,270.55 460.24,262.25 465.03,270.55 "
         style="fill:#c19039;stroke:none;stroke-width:0.958939"
         id="polygon1283" /><polygon
         points="431.96,285.11 436.75,276.82 441.54,285.11 "
         style="fill:#c19039;stroke:none;stroke-width:0.958939"
         id="polygon1285" /><polygon
         points="486.57,284.63 491.36,276.34 496.15,284.63 "
         style="fill:#c19039;stroke:none;stroke-width:0.958939"
         id="polygon1287" /></g><g
       clip-path="url(#cpMC4wMHw1NzYuMDB8MC4wMHw0MzIuMDA=)"
       id="g1341"
       style="stroke-width:1.35062"><text
         x="334.04999"
         y="380.42001"
         text-anchor="end"
         style="font-size:8.8px;font-family:Arial;fill:#4d4d4d;stroke-width:1.82417"
         textLength="12.72"
         lengthAdjust="spacingAndGlyphs"
         id="text1291">-10</text><text
         x="334.04999"
         y="334.94"
         text-anchor="end"
         style="font-size:8.8px;font-family:Arial;fill:#4d4d4d;stroke-width:1.82417"
         textLength="7.8299999"
         lengthAdjust="spacingAndGlyphs"
         id="text1293">-5</text><text
         x="334.04999"
         y="289.45001"
         text-anchor="end"
         style="font-size:8.8px;font-family:Arial;fill:#4d4d4d;stroke-width:1.82417"
         textLength="4.9000001"
         lengthAdjust="spacingAndGlyphs"
         id="text1295">0</text><text
         x="334.04999"
         y="243.97"
         text-anchor="end"
         style="font-size:8.8px;font-family:Arial;fill:#4d4d4d;stroke-width:1.82417"
         textLength="4.9000001"
         lengthAdjust="spacingAndGlyphs"
         id="text1297">5</text><polyline
         points="336.24,377.27 338.98,377.27 "
         style="stroke:#333333;stroke-width:1.44516;stroke-linecap:butt"
         id="polyline1299" /><polyline
         points="336.24,331.78 338.98,331.78 "
         style="stroke:#333333;stroke-width:1.44516;stroke-linecap:butt"
         id="polyline1301" /><polyline
         points="336.24,286.30 338.98,286.30 "
         style="stroke:#333333;stroke-width:1.44516;stroke-linecap:butt"
         id="polyline1303" /><polyline
         points="336.24,240.81 338.98,240.81 "
         style="stroke:#333333;stroke-width:1.44516;stroke-linecap:butt"
         id="polyline1305" /><polyline
         points="388.37,395.10 388.37,392.37 "
         style="stroke:#333333;stroke-width:1.44516;stroke-linecap:butt"
         id="polyline1307" /><polyline
         points="442.09,395.10 442.09,392.37 "
         style="stroke:#333333;stroke-width:1.44516;stroke-linecap:butt"
         id="polyline1309" /><polyline
         points="495.80,395.10 495.80,392.37 "
         style="stroke:#333333;stroke-width:1.44516;stroke-linecap:butt"
         id="polyline1311" /><text
         x="388.37"
         y="403.60001"
         text-anchor="middle"
         style="font-size:8.8px;font-family:Arial;fill:#4d4d4d;stroke-width:1.82417"
         textLength="12.72"
         lengthAdjust="spacingAndGlyphs"
         id="text1313">-10</text><text
         x="442.09"
         y="403.60001"
         text-anchor="middle"
         style="font-size:8.8px;font-family:Arial;fill:#4d4d4d;stroke-width:1.82417"
         textLength="4.9000001"
         lengthAdjust="spacingAndGlyphs"
         id="text1315">0</text><text
         x="495.79999"
         y="403.60001"
         text-anchor="middle"
         style="font-size:8.8px;font-family:Arial;fill:#4d4d4d;stroke-width:1.82417"
         textLength="9.79"
         lengthAdjust="spacingAndGlyphs"
         id="text1317">10</text><text
         x="420.56"
         y="416.37"
         text-anchor="middle"
         style="font-size:11px;font-family:Arial;stroke-width:1.82417"
         textLength="94.160004"
         lengthAdjust="spacingAndGlyphs"
         id="text1319">PC1: 75% variance</text><text
         transform="rotate(-90,306.08,4.71)"
         text-anchor="middle"
         style="font-size:11px;font-family:Arial;stroke-width:1.82417"
         textLength="94.160004"
         lengthAdjust="spacingAndGlyphs"
         id="text1321">PC2: 18% variance</text><rect
         x="513.09998"
         y="280.13"
         width="57.419998"
         height="61.32"
         style="fill:#ffffff;stroke:none;stroke-width:1.44516"
         id="rect1323" /><text
         x="518.58002"
         y="294.70999"
         style="font-size:11px;font-family:Arial;stroke-width:1.35062"
         textLength="46.470001"
         lengthAdjust="spacingAndGlyphs"
         id="text1325">treatment</text><rect
         x="518.58002"
         y="301.41"
         width="17.280001"
         height="17.280001"
         style="fill:#ebebeb;stroke:none;stroke-width:1.44516"
         id="rect1327" /><circle
         cx="527.21997"
         cy="310.04999"
         r="3.5599999"
         style="fill:#0c335e;stroke:none;stroke-width:0.958939"
         id="circle1329" /><rect
         x="518.58002"
         y="318.69"
         width="17.280001"
         height="17.280001"
         style="fill:#ebebeb;stroke:none;stroke-width:1.44516"
         id="rect1331" /><polygon
         points="522.43,330.09 527.22,321.8 532.01,330.09 "
         style="fill:#c19039;stroke:none;stroke-width:0.958939"
         id="polygon1333" /><text
         x="541.34003"
         y="313.20001"
         style="font-size:8.8px;font-family:Arial;stroke-width:1.35062"
         textLength="5.8699999"
         lengthAdjust="spacingAndGlyphs"
         id="text1335">A</text><text
         x="541.34003"
         y="330.48001"
         style="font-size:8.8px;font-family:Arial;stroke-width:1.35062"
         textLength="5.8699999"
         lengthAdjust="spacingAndGlyphs"
         id="text1337">B</text><text
         x="293.04999"
         y="231.12"
         style="font-weight:bold;font-size:14px;font-family:Arial;stroke-width:1.35062"
         textLength="10.11"
         lengthAdjust="spacingAndGlyphs"
         id="text1339">D</text></g></g><path
     style="fill:#ffffff;fill-opacity:0;fill-rule:evenodd;stroke:#ff0000;stroke-width:1.301;stroke-opacity:1;marker-end:url(#marker3477)"
     d="m 147.89331,107.94109 c 14.25202,-12.382903 28.50398,-24.765756 56.54146,-24.181353 28.03749,0.584403 69.85798,14.135178 111.67841,27.685933"
     id="path3441"
     inkscape:path-effect="#path-effect3443"
     inkscape:original-d="M 147.89331,107.94109 C 162.14602,95.558985 176.39798,83.176132 190.64919,70.792531 232.47211,84.344595 274.2926,97.89537 316.11318,111.44567" /><path
     style="fill:#ffffff;fill-opacity:0;fill-rule:evenodd;stroke:#ff0000;stroke-width:1.301;stroke-opacity:1;marker-end:url(#TriangleStart)"
     d="m 131.77223,283.87104 c 27.56986,-8.1775 55.13922,-16.35486 80.723,-21.37806 25.58378,-5.02321 49.18082,-6.89228 66.70394,-4.90604 17.52313,1.98625 28.97119,7.8271 40.41859,13.66761"
     id="path3445"
     inkscape:path-effect="#path-effect3447"
     inkscape:original-d="m 131.77223,283.87104 c 27.57012,-8.17661 55.13949,-16.35396 82.70811,-24.53207 23.59873,-1.8684 47.19577,-3.73746 70.79253,-5.60733 11.44928,5.84184 22.89734,11.68269 34.34489,17.52291" /><text
     xml:space="preserve"
     style="font-size:12px;font-family:Arial;-inkscape-font-specification:'Arial, Normal';fill:#ff0000;fill-opacity:1;fill-rule:evenodd;stroke:#ff0000;stroke-width:1.301;stroke-opacity:0"
     x="328.57596"
     y="117.69451"
     id="text4329"><tspan
       sodipodi:role="line"
       id="tspan4327"
       style="font-style:italic;fill:#ff0000;fill-opacity:1;stroke:#ff0000;stroke-width:1.301;stroke-opacity:0"
       x="328.57596"
       y="117.69451">F-<tspan
   style="font-style:normal"
   id="tspan8426">statistic = 65.02  </tspan></tspan></text><text
     xml:space="preserve"
     style="font-size:12px;font-family:Arial;-inkscape-font-specification:'Arial, Normal';white-space:pre;fill:#ff0000;fill-opacity:1;fill-rule:evenodd;stroke:#ff0000;stroke-width:1.301;stroke-opacity:0"
     x="329.61969"
     y="277.63138"
     id="text4329-5"><tspan
       sodipodi:role="line"
       id="tspan4327-8"
       style="font-style:italic;fill:#ff0000;fill-opacity:1;stroke:#ff0000;stroke-width:1.301;stroke-opacity:0"
       x="329.61969"
       y="277.63138">F-<tspan
   style="font-style:normal"
   id="tspan8428">statistic = 1.07  </tspan></tspan></text><text
     xml:space="preserve"
     transform="scale(0.75)"
     id="text15204"
     style="font-size:16px;-inkscape-font-specification:'Arial, Normal';font-family:Arial;stroke-width:1.73466667;stroke:#ff0000;fill-rule:evenodd;fill:#ff0000;text-orientation:auto;stroke-opacity:1;fill-opacity:1;white-space:pre;shape-inside:url(#rect15206)" /><text
     xml:space="preserve"
     style="font-size:12px;font-family:Arial;-inkscape-font-specification:'Arial, Normal';fill:#2d0000;fill-opacity:1;fill-rule:evenodd;stroke:#ff0000;stroke-width:1.301;stroke-opacity:1"
     x="-247.96162"
     y="75.303368"
     id="text15986"
     transform="rotate(-90.245476)"><tspan
       sodipodi:role="line"
       id="tspan15984"
       style="fill:#2d0000;fill-opacity:1;stroke:#5e5e5e;stroke-width:1.301;stroke-opacity:0"
       x="-247.96162"
       y="75.303368">Most Differentiated DEGs</tspan></text><text
     xml:space="preserve"
     style="font-size:12px;font-family:Arial;-inkscape-font-specification:'Arial, Normal';white-space:pre;fill:#2d0000;fill-opacity:1;fill-rule:evenodd;stroke:#ff0000;stroke-width:1.301;stroke-opacity:1"
     x="-385.69113"
     y="72.238556"
     id="text15986-4"
     transform="rotate(-90.695056)"><tspan
       sodipodi:role="line"
       id="tspan15984-3"
       style="fill:#2d0000;fill-opacity:1;stroke:#5e5e5e;stroke-width:1.301;stroke-opacity:0"
       x="-385.69113"
       y="72.238556">Significant DEGs</tspan></text></svg>
